<svg width="23" height="18" viewBox="0 0 23 18" fill="none" xmlns="http://www.w3.org/2000/svg">
<path d="M1.25209 17.6035C1.06365 17.6035 0.905427 17.5395 0.777427 17.4115C0.649427 17.2835 0.585427 17.1249 0.585427 16.9355C0.585427 16.7462 0.649427 16.588 0.777427 16.4609C0.905427 16.3337 1.06365 16.2702 1.25209 16.2702H2.54009L5.04409 7.81152C5.1712 7.33596 5.42854 6.95996 5.81609 6.68352C6.20365 6.40708 6.6312 6.2693 7.09876 6.27019H10.8934C11.3619 6.27019 11.7899 6.40796 12.1774 6.68352C12.5641 6.95996 12.821 7.33596 12.9481 7.81152L15.4521 16.2702H16.7401C16.9285 16.2702 17.0868 16.3342 17.2148 16.4622C17.3428 16.5902 17.4068 16.7489 17.4068 16.9382C17.4068 17.1275 17.3428 17.2857 17.2148 17.4129C17.0868 17.54 16.9285 17.6035 16.7401 17.6035H1.25209ZM8.32943 2.11685V-1.88315C8.32943 -2.07248 8.39343 -2.23115 8.52143 -2.35915C8.64943 -2.48715 8.80809 -2.55115 8.99743 -2.55115C9.18676 -2.55115 9.34498 -2.48715 9.47209 -2.35915C9.5992 -2.23115 9.66276 -2.07293 9.66276 -1.88448V2.11552C9.66276 2.30485 9.59876 2.46352 9.47076 2.59152C9.34276 2.71952 9.18409 2.78307 8.99476 2.78219C8.80543 2.7813 8.6472 2.71774 8.52009 2.59152C8.39298 2.4653 8.32943 2.30663 8.32943 2.11552M15.1241 4.37819L17.9841 1.54485C18.1085 1.42041 18.2596 1.36085 18.4374 1.36619C18.617 1.37241 18.773 1.44174 18.9054 1.57419C19.0272 1.69596 19.0881 1.84307 19.0881 2.01552C19.0881 2.18885 19.0259 2.33774 18.9014 2.46219L16.0681 5.32885C15.9383 5.45863 15.7854 5.52796 15.6094 5.53685C15.4334 5.54574 15.2716 5.47641 15.1241 5.32885C14.9765 5.1813 14.9032 5.02263 14.9041 4.85285C14.905 4.68308 14.9783 4.52485 15.1241 4.37819ZM18.3294 10.7835H22.3294C22.5188 10.7835 22.677 10.8475 22.8041 10.9755C22.9312 11.1035 22.9952 11.2617 22.9961 11.4502C22.997 11.6386 22.933 11.7969 22.8041 11.9249C22.6752 12.0529 22.517 12.1169 22.3294 12.1169H18.3294C18.1401 12.1169 17.9819 12.0529 17.8548 11.9249C17.7268 11.7969 17.6628 11.6382 17.6628 11.4489C17.6628 11.2595 17.7268 11.1013 17.8548 10.9742C17.9828 10.8471 18.141 10.7831 18.3294 10.7822M1.92409 5.32352L-0.90924 2.46219C-1.03368 2.33774 -1.0928 2.18619 -1.08657 2.00752C-1.08124 1.82885 -1.01191 1.6733 -0.878573 1.54085C-0.756795 1.41907 -0.609684 1.35819 -0.43724 1.35819C-0.264795 1.35819 -0.115906 1.42041 0.00942707 1.54485L2.87609 4.37685C3.00587 4.50663 3.0752 4.65952 3.08409 4.83552C3.09209 5.01152 3.02276 5.1733 2.87609 5.32085C2.72854 5.46752 2.56987 5.54085 2.40009 5.54085C2.23032 5.54085 2.07165 5.46752 1.92409 5.32085M-4.33724 12.1169C-4.52657 12.1169 -4.6848 12.0529 -4.81191 11.9249C-4.93991 11.7969 -5.00391 11.6382 -5.00391 11.4489C-5.00391 11.2595 -4.93991 11.1013 -4.81191 10.9742C-4.68391 10.8471 -4.52568 10.7831 -4.33724 10.7822H-0.33724C-0.147906 10.7822 0.0103154 10.8466 0.137427 10.9755C0.264538 11.1044 0.328538 11.2626 0.329427 11.4502C0.330316 11.6377 0.266315 11.796 0.137427 11.9249C0.00853777 12.0537 -0.149684 12.1177 -0.33724 12.1169H-4.33724Z" fill="url(#paint0_linear_1_4923)"/>
<defs>
<linearGradient id="paint0_linear_1_4923" x1="8.9961" y1="-2.55115" x2="8.9961" y2="17.6035" gradientUnits="userSpaceOnUse">
<stop stop-color="#F5A111"/>
<stop offset="1" stop-color="#E61D2A"/>
</linearGradient>
</defs>
</svg>
