<svg width="24" height="25" viewBox="0 0 24 25" fill="none" xmlns="http://www.w3.org/2000/svg">
<g id="material-symbols:local-activity-rounded" clip-path="url(#clip0_1_4900)">
<path id="Vector" d="M9.99805 14.1742L11.498 15.3242C11.6814 15.4742 11.8814 15.4786 12.098 15.3372C12.3147 15.1959 12.3814 15.0082 12.298 14.7742L11.698 12.8742L13.373 11.5742C13.5564 11.4242 13.6064 11.2366 13.523 11.0112C13.4397 10.7859 13.2814 10.6736 13.048 10.6742H11.098L10.473 8.74923C10.3897 8.5159 10.2314 8.39923 9.99805 8.39923C9.76471 8.39923 9.60638 8.5159 9.52305 8.74923L8.89805 10.6742H6.92305C6.68971 10.6742 6.53571 10.7869 6.46105 11.0122C6.38638 11.2376 6.44038 11.4249 6.62305 11.5742L8.24805 12.8742L7.64805 14.7992C7.56471 15.0326 7.62305 15.2202 7.82305 15.3622C8.02305 15.5042 8.22305 15.4999 8.42305 15.3492L9.99805 14.1742ZM1.99805 20.2742C1.44805 20.2742 0.97738 20.0786 0.586047 19.6872C0.194714 19.2959 -0.00128646 18.8249 -0.00195312 18.2742V14.8992C-0.00195312 14.7159 0.0563802 14.5576 0.173047 14.4242C0.289714 14.2909 0.439714 14.2076 0.623047 14.1742C1.02305 14.0409 1.35238 13.7992 1.61105 13.4492C1.86971 13.0992 1.99871 12.7076 1.99805 12.2742C1.99738 11.8409 1.86838 11.4492 1.61105 11.0992C1.35371 10.7492 1.02438 10.5076 0.623047 10.3742C0.439714 10.3409 0.289714 10.2576 0.173047 10.1242C0.0563802 9.9909 -0.00195313 9.83256 -0.00195312 9.64923V6.27423C-0.00195312 5.72423 0.194047 5.25356 0.586047 4.86223C0.978047 4.4709 1.44871 4.2749 1.99805 4.27423H17.998C18.548 4.27423 19.019 4.47023 19.411 4.86223C19.803 5.25423 19.9987 5.7249 19.998 6.27423V9.64923C19.998 9.83256 19.9397 9.9909 19.823 10.1242C19.7064 10.2576 19.5564 10.3409 19.373 10.3742C18.973 10.5076 18.644 10.7492 18.386 11.0992C18.128 11.4492 17.9987 11.8409 17.998 12.2742C17.9974 12.7076 18.1267 13.0992 18.386 13.4492C18.6454 13.7992 18.9744 14.0409 19.373 14.1742C19.5564 14.2076 19.7064 14.2909 19.823 14.4242C19.9397 14.5576 19.998 14.7159 19.998 14.8992V18.2742C19.998 18.8242 19.8024 19.2952 19.411 19.6872C19.0197 20.0792 18.5487 20.2749 17.998 20.2742H1.99805Z" fill="url(#paint0_linear_1_4900)"/>
</g>
<defs>
<linearGradient id="paint0_linear_1_4900" x1="19.998" y1="12.2742" x2="-0.00195312" y2="12.2742" gradientUnits="userSpaceOnUse">
<stop stop-color="#F59E0B"/>
<stop offset="1" stop-color="#E61D2A"/>
</linearGradient>
<clipPath id="clip0_1_4900">
<rect width="24" height="24" fill="white" transform="translate(-0.00195312 0.321106)"/>
</clipPath>
</defs>
</svg>
