<svg width="25" height="25" viewBox="0 0 25 25" fill="none" xmlns="http://www.w3.org/2000/svg">
<path fill-rule="evenodd" clip-rule="evenodd" d="M12.2972 0.193481C18.9708 0.193481 24.3805 5.60319 24.3805 12.2768C24.3805 18.9504 18.9708 24.3601 12.2972 24.3601C5.62358 24.3601 0.213867 18.9504 0.213867 12.2768C0.213867 5.60319 5.62358 0.193481 12.2972 0.193481ZM17.7347 10.4643C17.254 10.4643 16.793 10.6553 16.4531 10.9952C16.1132 11.3351 15.9222 11.7961 15.9222 12.2768C15.9222 12.7575 16.1132 13.2185 16.4531 13.5584C16.793 13.8984 17.254 14.0893 17.7347 14.0893C18.2154 14.0893 18.6764 13.8984 19.0163 13.5584C19.3562 13.2185 19.5472 12.7575 19.5472 12.2768C19.5472 11.7961 19.3562 11.3351 19.0163 10.9952C18.6764 10.6553 18.2154 10.4643 17.7347 10.4643ZM12.2972 10.4643C11.8165 10.4643 11.3555 10.6553 11.0156 10.9952C10.6757 11.3351 10.4847 11.7961 10.4847 12.2768C10.4847 12.7575 10.6757 13.2185 11.0156 13.5584C11.3555 13.8984 11.8165 14.0893 12.2972 14.0893C12.7779 14.0893 13.2389 13.8984 13.5788 13.5584C13.9187 13.2185 14.1097 12.7575 14.1097 12.2768C14.1097 11.7961 13.9187 11.3351 13.5788 10.9952C13.2389 10.6553 12.7779 10.4643 12.2972 10.4643ZM6.8597 10.4643C6.379 10.4643 5.91798 10.6553 5.57807 10.9952C5.23816 11.3351 5.0472 11.7961 5.0472 12.2768C5.0472 12.7575 5.23816 13.2185 5.57807 13.5584C5.91798 13.8984 6.379 14.0893 6.8597 14.0893C7.3404 14.0893 7.80142 13.8984 8.14133 13.5584C8.48124 13.2185 8.6722 12.7575 8.6722 12.2768C8.6722 11.7961 8.48124 11.3351 8.14133 10.9952C7.80142 10.6553 7.3404 10.4643 6.8597 10.4643Z" fill="url(#paint0_linear_1_4946)"/>
<defs>
<linearGradient id="paint0_linear_1_4946" x1="12.2972" y1="0.193481" x2="12.2972" y2="24.3601" gradientUnits="userSpaceOnUse">
<stop stop-color="#F59E0B"/>
<stop offset="1" stop-color="#E61D2A"/>
</linearGradient>
</defs>
</svg>
