<svg width="24" height="24" viewBox="0 0 24 24" fill="none" xmlns="http://www.w3.org/2000/svg">
<g id="material-symbols-light:e911-emergency-outline" clip-path="url(#clip0_1_4883)">
<path id="Vector" d="M0.17564 18.5393V17.174H2.17722L4.74269 8.51231C4.87194 8.02534 5.13318 7.64077 5.52639 7.3586C5.9187 7.07552 6.35834 6.93398 6.84531 6.93398H10.7311C11.218 6.93398 11.6577 7.07507 12.05 7.35724C12.4432 7.64032 12.7044 8.02534 12.8337 8.51231L15.4005 17.174H17.4007V18.5393H0.17564ZM3.62584 17.174H13.9505L11.5189 8.9028C11.4661 8.71074 11.3655 8.56192 11.2171 8.45633C11.0678 8.35166 10.8972 8.29932 10.7051 8.29932H6.87125C6.67919 8.29932 6.50853 8.35166 6.35925 8.45633C6.21088 8.56192 6.1103 8.71074 6.05751 8.9028L3.62584 17.174ZM8.10551 3.36363V-2.09772H9.47085V3.36363H8.10551ZM15.5466 6.45339L14.5731 5.4799L18.4479 1.63784L19.3873 2.57856L15.5466 6.45339ZM17.6629 12.921V11.5556H23.1242V12.921H17.6629ZM2.02977 6.45339L-1.81093 2.57856L-0.871573 1.63784L3.00325 5.4799L2.02977 6.45339ZM-5.54785 12.921V11.5556H-0.0865049V12.921H-5.54785Z" fill="black" fill-opacity="0.52"/>
</g>
<defs>
<clipPath id="clip0_1_4883">
<rect width="23.0063" height="23.0063" fill="white" transform="translate(0.316406 0.326477)"/>
</clipPath>
</defs>
</svg>
