<svg width="20" height="17" viewBox="0 0 20 17" fill="none" xmlns="http://www.w3.org/2000/svg">
<path d="M9.99805 10.2211L11.498 11.3711C11.6814 11.5211 11.8814 11.5254 12.098 11.3841C12.3147 11.2428 12.3814 11.0551 12.298 10.8211L11.698 8.92111L13.373 7.62111C13.5564 7.47111 13.6064 7.28344 13.523 7.05811C13.4397 6.83277 13.2814 6.72044 13.048 6.72111H11.098L10.473 4.79611C10.3897 4.56277 10.2314 4.44611 9.99805 4.44611C9.76471 4.44611 9.60638 4.56277 9.52305 4.79611L8.89805 6.72111H6.92305C6.68971 6.72111 6.53571 6.83377 6.46105 7.05911C6.38638 7.28444 6.44038 7.47177 6.62305 7.62111L8.24805 8.92111L7.64805 10.8461C7.56471 11.0794 7.62305 11.2671 7.82305 11.4091C8.02305 11.5511 8.22305 11.5468 8.42305 11.3961L9.99805 10.2211ZM1.99805 16.3211C1.44805 16.3211 0.97738 16.1254 0.586047 15.7341C0.194714 15.3428 -0.00128646 14.8718 -0.00195312 14.3211V10.9461C-0.00195312 10.7628 0.0563802 10.6044 0.173047 10.4711C0.289714 10.3378 0.439714 10.2544 0.623047 10.2211C1.02305 10.0878 1.35238 9.84611 1.61105 9.49611C1.86971 9.14611 1.99871 8.75444 1.99805 8.32111C1.99738 7.88777 1.86838 7.49611 1.61105 7.14611C1.35371 6.79611 1.02438 6.55444 0.623047 6.42111C0.439714 6.38777 0.289714 6.30444 0.173047 6.17111C0.0563802 6.03777 -0.00195313 5.87944 -0.00195312 5.69611V2.32111C-0.00195312 1.77111 0.194047 1.30044 0.586047 0.909106C0.978047 0.517772 1.44871 0.321773 1.99805 0.321106H17.998C18.548 0.321106 19.019 0.517106 19.411 0.909106C19.803 1.30111 19.9987 1.77177 19.998 2.32111V5.69611C19.998 5.87944 19.9397 6.03777 19.823 6.17111C19.7064 6.30444 19.5564 6.38777 19.373 6.42111C18.973 6.55444 18.644 6.79611 18.386 7.14611C18.128 7.49611 17.9987 7.88777 17.998 8.32111C17.9974 8.75444 18.1267 9.14611 18.386 9.49611C18.6454 9.84611 18.9744 10.0878 19.373 10.2211C19.5564 10.2544 19.7064 10.3378 19.823 10.4711C19.9397 10.6044 19.998 10.7628 19.998 10.9461V14.3211C19.998 14.8711 19.8024 15.3421 19.411 15.7341C19.0197 16.1261 18.5487 16.3218 17.998 16.3211H1.99805ZM1.99805 14.3211H17.998V11.7711C17.3814 11.4044 16.8937 10.9171 16.535 10.3091C16.1764 9.70111 15.9974 9.03844 15.998 8.32111C15.9987 7.60377 16.178 6.94144 16.536 6.33411C16.894 5.72677 17.3814 5.23911 17.998 4.87111V2.32111H1.99805V4.87111C2.61471 5.23777 3.10238 5.72544 3.46105 6.33411C3.81971 6.94277 3.99871 7.60511 3.99805 8.32111C3.99738 9.03711 3.81838 9.69977 3.46105 10.3091C3.10371 10.9184 2.61605 11.4058 1.99805 11.7711V14.3211Z" fill="black" fill-opacity="0.22"/>
</svg>
