<svg width="24" height="24" viewBox="0 0 24 24" fill="none" xmlns="http://www.w3.org/2000/svg">
<g id="gg:more-o" clip-path="url(#clip0_1_4885)">
<g id="Group">
<path id="Vector" d="M7.38301 13.7409C7.89148 13.7409 8.37913 13.5389 8.73867 13.1794C9.09821 12.8199 9.3002 12.3322 9.3002 11.8237C9.3002 11.3153 9.09821 10.8276 8.73867 10.4681C8.37913 10.1085 7.89148 9.90656 7.38301 9.90656C6.87454 9.90656 6.3869 10.1085 6.02735 10.4681C5.66781 10.8276 5.46582 11.3153 5.46582 11.8237C5.46582 12.3322 5.66781 12.8199 6.02735 13.1794C6.3869 13.5389 6.87454 13.7409 7.38301 13.7409ZM14.0932 11.8237C14.0932 12.3322 13.8912 12.8199 13.5316 13.1794C13.1721 13.5389 12.6845 13.7409 12.176 13.7409C11.6675 13.7409 11.1799 13.5389 10.8203 13.1794C10.4608 12.8199 10.2588 12.3322 10.2588 11.8237C10.2588 11.3153 10.4608 10.8276 10.8203 10.4681C11.1799 10.1085 11.6675 9.90656 12.176 9.90656C12.6845 9.90656 13.1721 10.1085 13.5316 10.4681C13.8912 10.8276 14.0932 11.3153 14.0932 11.8237ZM16.969 13.7409C17.4774 13.7409 17.9651 13.5389 18.3246 13.1794C18.6842 12.8199 18.8862 12.3322 18.8862 11.8237C18.8862 11.3153 18.6842 10.8276 18.3246 10.4681C17.9651 10.1085 17.4774 9.90656 16.969 9.90656C16.4605 9.90656 15.9728 10.1085 15.6133 10.4681C15.2538 10.8276 15.0518 11.3153 15.0518 11.8237C15.0518 12.3322 15.2538 12.8199 15.6133 13.1794C15.9728 13.5389 16.4605 13.7409 16.969 13.7409Z" fill="black" fill-opacity="0.49"/>
<path id="Vector_2" fill-rule="evenodd" clip-rule="evenodd" d="M23.6801 11.8249C23.6801 18.1775 18.5296 23.328 12.177 23.328C5.82436 23.328 0.673828 18.1775 0.673828 11.8249C0.673828 5.47225 5.82436 0.321716 12.177 0.321716C18.5296 0.321716 23.6801 5.47225 23.6801 11.8249ZM21.7629 11.8249C21.7629 17.1192 17.4713 21.4108 12.177 21.4108C6.88265 21.4108 2.59102 17.1192 2.59102 11.8249C2.59102 6.53054 6.88265 2.23891 12.177 2.23891C17.4713 2.23891 21.7629 6.53054 21.7629 11.8249Z" fill="black" fill-opacity="0.49"/>
</g>
</g>
<defs>
<clipPath id="clip0_1_4885">
<rect width="23.0063" height="23.0063" fill="white" transform="translate(0.677734 0.326477)"/>
</clipPath>
</defs>
</svg>
