<svg width="19" height="19" viewBox="0 0 19 19" fill="none" xmlns="http://www.w3.org/2000/svg">
<path d="M5.54167 12.6666H2.375L5.12208 8.97739C5.29079 8.79193 5.41304 8.56907 5.47878 8.32713C5.54452 8.0852 5.55187 7.83111 5.50023 7.58578C5.44858 7.34045 5.33942 7.11089 5.18171 6.91599C5.02401 6.7211 4.82229 6.56643 4.59313 6.46473C4.36398 6.36304 4.11395 6.31721 3.86362 6.33102C3.61329 6.34483 3.36983 6.41789 3.15325 6.54418C2.93668 6.67048 2.75319 6.84639 2.61789 7.05746C2.48259 7.26852 2.39934 7.5087 2.375 7.75822M7.91667 12.6666V6.33322H11.0833M7.91667 9.49989H10.2917M13.4583 12.6666V7.91655C13.4583 7.49663 13.6251 7.0939 13.9221 6.79697C14.219 6.50004 14.6217 6.33322 15.0417 6.33322C15.4616 6.33322 15.8643 6.50004 16.1613 6.79697C16.4582 7.0939 16.625 7.49663 16.625 7.91655V12.6666M13.4583 10.2916H16.625" stroke="url(#paint0_linear_595_313)" stroke-width="1.58333" stroke-linecap="round" stroke-linejoin="round"/>
<defs>
<linearGradient id="paint0_linear_595_313" x1="2.375" y1="9.49758" x2="16.625" y2="9.49758" gradientUnits="userSpaceOnUse">
<stop stop-color="#F59E0B"/>
<stop offset="1" stop-color="#E61D2A"/>
</linearGradient>
</defs>
</svg>
