<svg width="12" height="12" viewBox="0 0 12 12" fill="none" xmlns="http://www.w3.org/2000/svg">
<path d="M10.2856 5.57142H6.4285V1.71428C6.4285 1.60061 6.38335 1.4916 6.30298 1.41123C6.2226 1.33086 6.11359 1.28571 5.99993 1.28571C5.88627 1.28571 5.77726 1.33086 5.69688 1.41123C5.61651 1.4916 5.57136 1.60061 5.57136 1.71428V5.57142H1.71422C1.60055 5.57142 1.49154 5.61657 1.41117 5.69695C1.3308 5.77732 1.28564 5.88633 1.28564 5.99999C1.28564 6.11366 1.3308 6.22266 1.41117 6.30304C1.49154 6.38341 1.60055 6.42856 1.71422 6.42856H5.57136V10.2857C5.57136 10.3994 5.61651 10.5084 5.69688 10.5888C5.77726 10.6691 5.88627 10.7143 5.99993 10.7143C6.11359 10.7143 6.2226 10.6691 6.30298 10.5888C6.38335 10.5084 6.4285 10.3994 6.4285 10.2857V6.42856H10.2856C10.3993 6.42856 10.5083 6.38341 10.5887 6.30304C10.6691 6.22266 10.7142 6.11366 10.7142 5.99999C10.7142 5.88633 10.6691 5.77732 10.5887 5.69695C10.5083 5.61657 10.3993 5.57142 10.2856 5.57142Z" fill="white"/>
</svg>
