<svg width="24" height="24" viewBox="0 0 24 24" fill="none" xmlns="http://www.w3.org/2000/svg">
<g clip-path="url(#clip0_1_3009)">
<path d="M8.414 17.0002L18.364 7.05018C18.5462 6.86158 18.647 6.60898 18.6447 6.34678C18.6424 6.08458 18.5372 5.83377 18.3518 5.64836C18.1664 5.46295 17.9156 5.35778 17.6534 5.35551C17.3912 5.35323 17.1386 5.45402 16.95 5.63618L7 15.5862V10.0002C7 9.73496 6.89464 9.48061 6.70711 9.29307C6.51957 9.10554 6.26522 9.00018 6 9.00018C5.73478 9.00018 5.48043 9.10554 5.29289 9.29307C5.10536 9.48061 5 9.73496 5 10.0002V18.0002C5 18.2654 5.10536 18.5198 5.29289 18.7073C5.48043 18.8948 5.73478 19.0002 6 19.0002H14C14.2652 19.0002 14.5196 18.8948 14.7071 18.7073C14.8946 18.5198 15 18.2654 15 18.0002C15 17.735 14.8946 17.4806 14.7071 17.2931C14.5196 17.1055 14.2652 17.0002 14 17.0002H8.414Z" fill="white"/>
</g>
<defs>
<clipPath id="clip0_1_3009">
<rect width="24" height="24" fill="white"/>
</clipPath>
</defs>
</svg>
