<svg width="7" height="13" viewBox="0 0 7 13" fill="none" xmlns="http://www.w3.org/2000/svg">
<path fill-rule="evenodd" clip-rule="evenodd" d="M0.256188 7.11862C0.0921511 6.95453 0 6.73201 0 6.49999C0 6.26798 0.0921511 6.04546 0.256188 5.88137L5.20606 0.931495C5.28678 0.847924 5.38333 0.781264 5.49008 0.735406C5.59684 0.689548 5.71166 0.66541 5.82784 0.664401C5.94402 0.663391 6.05924 0.68553 6.16677 0.729526C6.27431 0.773522 6.372 0.838493 6.45416 0.920649C6.53631 1.00281 6.60129 1.1005 6.64528 1.20804C6.68928 1.31557 6.71142 1.43079 6.71041 1.54697C6.7094 1.66315 6.68526 1.77797 6.6394 1.88472C6.59354 1.99148 6.52688 2.08803 6.44331 2.16875L2.11206 6.49999L6.44331 10.8312C6.6027 10.9963 6.6909 11.2173 6.6889 11.4467C6.68691 11.6761 6.59489 11.8956 6.43265 12.0578C6.27042 12.2201 6.05096 12.3121 5.82154 12.3141C5.59212 12.3161 5.37109 12.2279 5.20606 12.0685L0.256188 7.11862Z" fill="black"/>
</svg>
