<svg width="21" height="20" viewBox="0 0 21 20" fill="none" xmlns="http://www.w3.org/2000/svg">
<g id="ep:back">
<path id="Vector" d="M5.12224 9.44775H17.3034C17.4649 9.44775 17.6198 9.51192 17.734 9.62614C17.8483 9.74036 17.9124 9.89528 17.9124 10.0568C17.9124 10.2183 17.8483 10.3733 17.734 10.4875C17.6198 10.6017 17.4649 10.6659 17.3034 10.6659H5.12224C4.96071 10.6659 4.80579 10.6017 4.69157 10.4875C4.57735 10.3733 4.51318 10.2183 4.51318 10.0568C4.51318 9.89528 4.57735 9.74036 4.69157 9.62614C4.80579 9.51192 4.96071 9.44775 5.12224 9.44775Z" fill="white"/>
<path id="Vector_2" d="M5.37541 10.0576L10.4269 15.1079C10.5413 15.2223 10.6055 15.3774 10.6055 15.5392C10.6055 15.7009 10.5413 15.856 10.4269 15.9704C10.3126 16.0847 10.1574 16.149 9.99571 16.149C9.83398 16.149 9.67886 16.0847 9.5645 15.9704L4.08299 10.4889C4.02627 10.4323 3.98127 10.3651 3.95056 10.2911C3.91986 10.2171 3.90405 10.1378 3.90405 10.0576C3.90405 9.97754 3.91986 9.89821 3.95056 9.82422C3.98127 9.75022 4.02627 9.68301 4.08299 9.62644L9.5645 4.14492C9.67886 4.03056 9.83398 3.96631 9.99571 3.96631C10.1574 3.96631 10.3126 4.03056 10.4269 4.14492C10.5413 4.25929 10.6055 4.4144 10.6055 4.57613C10.6055 4.73787 10.5413 4.89298 10.4269 5.00735L5.37541 10.0576Z" fill="white"/>
</g>
</svg>
