<svg width="22" height="22" viewBox="0 0 22 22" fill="none" xmlns="http://www.w3.org/2000/svg">
<path d="M16.7722 20.203C15.9741 20.203 14.8531 19.9143 13.1744 18.9764C11.1331 17.8317 9.55414 16.7748 7.52384 14.7499C5.56632 12.7936 4.61372 11.527 3.2805 9.10092C1.77433 6.3617 2.03108 4.92585 2.31809 4.31219C2.65988 3.57873 3.16439 3.14004 3.81649 2.70463C4.18687 2.46196 4.57884 2.25393 4.9874 2.08319C5.02829 2.06561 5.06631 2.04885 5.10024 2.03372C5.30262 1.94255 5.60925 1.80477 5.99764 1.95196C6.25685 2.04926 6.48825 2.24836 6.85048 2.6061C7.59335 3.33874 8.60849 4.97042 8.98299 5.77174C9.23443 6.31182 9.40083 6.66833 9.40123 7.06817C9.40123 7.53629 9.16574 7.8973 8.87996 8.28692C8.82641 8.36011 8.77326 8.43002 8.72174 8.49789C8.41061 8.90672 8.34234 9.02488 8.38731 9.23584C8.47848 9.65981 9.15838 10.9219 10.2757 12.0368C11.3931 13.1517 12.6188 13.7887 13.0444 13.8794C13.2644 13.9265 13.385 13.8553 13.8069 13.5332C13.8674 13.487 13.9295 13.4391 13.9945 13.3913C14.4304 13.0671 14.7746 12.8377 15.2317 12.8377H15.2341C15.6319 12.8377 15.9725 13.0102 16.5367 13.2948C17.2726 13.666 18.9534 14.6681 19.6905 15.4118C20.0491 15.7732 20.249 16.0038 20.3467 16.2626C20.4939 16.6522 20.3553 16.9576 20.2649 17.162C20.2498 17.1959 20.233 17.2332 20.2154 17.2744C20.0434 17.6823 19.8341 18.0734 19.5903 18.4429C19.1557 19.093 18.7154 19.5962 17.9803 19.9384C17.6029 20.117 17.1897 20.2075 16.7722 20.203Z" fill="white"/>
</svg>
