<svg width="11" height="11" viewBox="0 0 11 11" fill="none" xmlns="http://www.w3.org/2000/svg">
<rect width="11" height="11" fill="#F5F5F5"/>
<g id="Emergency">
<path d="M-779 -557C-779 -558.105 -778.105 -559 -777 -559H2606C2607.1 -559 2608 -558.105 2608 -557V970C2608 971.104 2607.1 972 2606 972H-777C-778.105 972 -779 971.105 -779 970V-557Z" fill="#444444"/>
<path d="M-777 -558H2606V-560H-777V-558ZM2607 -557V970H2609V-557H2607ZM2606 971H-777V973H2606V971ZM-778 970V-557H-780V970H-778ZM-777 971C-777.552 971 -778 970.552 -778 970H-780C-780 971.657 -778.657 973 -777 973V971ZM2607 970C2607 970.552 2606.55 971 2606 971V973C2607.66 973 2609 971.657 2609 970H2607ZM2606 -558C2606.55 -558 2607 -557.552 2607 -557H2609C2609 -558.657 2607.66 -560 2606 -560V-558ZM-777 -560C-778.657 -560 -780 -558.657 -780 -557H-778C-778 -557.552 -777.552 -558 -777 -558V-560Z" fill="white" fill-opacity="0.1"/>
<g id="Emegency">
<rect width="430" height="932" transform="translate(-51 -454)" fill="white"/>
<rect id="Rectangle 4452" x="-26" y="-36" width="389" height="268" rx="5" fill="#D9D9D9" fill-opacity="0.3"/>
<rect id="Rectangle 4453" x="-16" y="-19" width="368" height="49" rx="4" fill="white"/>
<g id="Frame 1000002399">
<rect x="-3" y="-3" width="17" height="17" rx="6" fill="#D9D9D9" fill-opacity="0.53"/>
<g id="fluent-mdl2:completed-solid" clip-path="url(#clip0_0_1)">
<path id="Vector" d="M5.5 0C6.00488 0 6.49186 0.0644531 6.96094 0.193359C7.43001 0.322266 7.86686 0.508464 8.27148 0.751953C8.67611 0.995443 9.04671 1.2819 9.3833 1.61133C9.71989 1.94076 10.0081 2.31136 10.248 2.72314C10.488 3.13493 10.6724 3.57357 10.8013 4.03906C10.9302 4.50456 10.9964 4.99154 11 5.5C11 6.00488 10.9355 6.49186 10.8066 6.96094C10.6777 7.43001 10.4915 7.86686 10.248 8.27148C10.0046 8.67611 9.7181 9.04671 9.38867 9.3833C9.05925 9.71989 8.68864 10.0081 8.27686 10.248C7.86507 10.488 7.42643 10.6724 6.96094 10.8013C6.49544 10.9302 6.00846 10.9964 5.5 11C4.99512 11 4.50814 10.9355 4.03906 10.8066C3.56999 10.6777 3.13314 10.4915 2.72852 10.248C2.32389 10.0046 1.95329 9.7181 1.6167 9.38867C1.28011 9.05925 0.991862 8.68864 0.751953 8.27686C0.512044 7.86507 0.327637 7.42643 0.19873 6.96094C0.0698242 6.49544 0.00358073 6.00846 0 5.5C0 4.99512 0.0644531 4.50814 0.193359 4.03906C0.322266 3.56999 0.508464 3.13314 0.751953 2.72852C0.995443 2.32389 1.2819 1.95329 1.61133 1.6167C1.94076 1.28011 2.31136 0.991862 2.72314 0.751953C3.13493 0.512044 3.57357 0.327637 4.03906 0.19873C4.50456 0.0698242 4.99154 0.00358073 5.5 0ZM8.73877 3.6792L8.0083 2.94873L4.46875 6.48828L2.9917 5.01123L2.26123 5.7417L4.46875 7.94922L8.73877 3.6792Z" fill="url(#paint0_linear_0_1)"/>
</g>
</g>
</g>
</g>
<defs>
<linearGradient id="paint0_linear_0_1" x1="0" y1="5.5" x2="11" y2="5.5" gradientUnits="userSpaceOnUse">
<stop stop-color="#F59E0B"/>
<stop offset="1" stop-color="#E61D2A"/>
</linearGradient>
<clipPath id="clip0_0_1">
<rect width="11" height="11" fill="white"/>
</clipPath>
</defs>
</svg>
