<svg width="35" height="35" viewBox="0 0 35 35" fill="none" xmlns="http://www.w3.org/2000/svg">
<path d="M23.3298 1.45093C23.7165 1.45093 24.0875 1.60457 24.361 1.87806C24.6344 2.15155 24.7881 2.52249 24.7881 2.90926V3.33818C24.7881 3.90671 25.249 4.36759 25.8175 4.36759H31.0503C31.6189 4.36759 32.0798 4.82848 32.0798 5.39701V12.0882C32.0798 12.6567 31.6189 13.1176 31.0503 13.1176H30.6056C29.8911 13.1176 29.3939 13.8277 29.6382 14.4991L33.14 24.1193C33.4268 24.8597 33.5595 25.6509 33.5298 26.4444C33.5002 27.2379 33.3088 28.017 32.9675 28.734C32.6262 29.4509 32.1421 30.0906 31.5449 30.6139C30.9477 31.1372 30.2499 31.5331 29.4943 31.7773C28.7387 32.0215 27.9413 32.1088 27.1507 32.0339C26.3602 31.9591 25.5933 31.7237 24.897 31.342C24.2006 30.9604 23.5896 30.4406 23.1012 29.8145C22.7762 29.3979 22.5101 28.9402 22.3093 28.4541C22.1305 28.0213 21.7299 27.7009 21.2616 27.7009H16.6511C16.182 27.7009 15.781 28.0224 15.6026 28.4563C15.2052 29.4233 14.5532 30.2706 13.7096 30.9043C12.6524 31.6984 11.357 32.1099 10.0354 32.0716C8.71385 32.0333 7.44443 31.5475 6.43505 30.6936C5.55165 29.9462 4.91324 28.9558 4.5955 27.8508C4.50929 27.551 4.31158 27.296 4.06333 27.1071C3.77286 26.886 3.52527 26.6114 3.33471 26.2967C3.05857 25.8405 2.91274 25.3175 2.91309 24.7843V10.2009C2.91309 9.81415 3.06673 9.44322 3.34022 9.16973C3.61371 8.89624 3.98465 8.7426 4.37142 8.7426H14.5798C14.9665 8.7426 15.3375 8.89624 15.611 9.16973C15.8844 9.44322 16.0381 9.81415 16.0381 10.2009V17.4926C16.0381 17.8794 16.1917 18.2503 16.4652 18.5238C16.7387 18.7973 17.1096 18.9509 17.4964 18.9509H20.4131C20.7999 18.9509 21.1708 18.7973 21.4443 18.5238C21.7178 18.2503 21.8714 17.8794 21.8714 17.4926V5.39701C21.8714 4.82848 21.4105 4.36759 20.842 4.36759H18.5258C17.9573 4.36759 17.4964 3.90671 17.4964 3.33818V2.48034C17.4964 1.91181 17.9573 1.45093 18.5258 1.45093H23.3298ZM10.2048 23.3259C9.43121 23.3259 8.68934 23.6332 8.14236 24.1802C7.59538 24.7272 7.28809 25.469 7.28809 26.2426C7.28809 27.0161 7.59538 27.758 8.14236 28.305C8.68934 28.852 9.43121 29.1593 10.2048 29.1593C10.9783 29.1593 11.7202 28.852 12.2671 28.305C12.8141 27.758 13.1214 27.0161 13.1214 26.2426C13.1214 25.469 12.8141 24.7272 12.2671 24.1802C11.7202 23.6332 10.9783 23.3259 10.2048 23.3259ZM27.7048 23.3245C27.0845 23.3247 26.4805 23.5226 25.9804 23.8895C25.4803 24.2563 25.1101 24.7731 24.9238 25.3647C24.7374 25.9563 24.7444 26.5919 24.9439 27.1792C25.1434 27.7665 25.5249 28.2749 26.033 28.6306C26.5412 28.9863 27.1494 29.1707 27.7695 29.1571C28.3896 29.1435 28.9893 28.9326 29.4813 28.555C29.9734 28.1774 30.3322 27.6527 30.5058 27.0573C30.6793 26.4618 30.6585 25.8265 30.4464 25.2436L30.4216 25.1795C30.2078 24.6331 29.8341 24.1639 29.3494 23.8332C28.8647 23.5026 28.2915 23.3258 27.7048 23.3259M26.2072 13.5991C26.102 13.31 25.8273 13.1176 25.5197 13.1176C25.1156 13.1176 24.7881 13.4451 24.7881 13.8492V17.4926C24.7881 18.6529 24.3272 19.7657 23.5067 20.5862C22.6862 21.4067 21.5734 21.8676 20.4131 21.8676H17.4964C16.3361 21.8676 15.2233 21.4067 14.4028 20.5862C13.8273 20.0107 13.4287 19.2913 13.242 18.5126C13.1094 17.9597 12.6605 17.4926 12.092 17.4926H6.85916C6.29064 17.4926 5.82975 17.9535 5.82975 18.522V19.663C5.82975 20.6112 7.15296 21.1825 8.0331 20.8297C8.16827 20.7756 8.30572 20.7263 8.44519 20.6823C9.45528 20.3629 10.5332 20.3246 11.5635 20.5713C12.5937 20.818 13.5374 21.3404 14.2933 22.0826C14.8589 22.638 15.3035 23.3007 15.6027 24.0289C15.781 24.4628 16.182 24.7843 16.6512 24.7843H21.2576C21.7271 24.7843 22.1283 24.4623 22.3065 24.028C22.7574 22.9284 23.5365 21.9863 24.5466 21.3362C25.2764 20.8665 26.0951 20.5697 26.9413 20.4581C27.7269 20.3545 28.3782 19.566 28.1073 18.8214L26.2072 13.5991ZM13.1214 12.6887C13.1214 12.1201 12.6605 11.6593 12.092 11.6593H6.85916C6.29064 11.6593 5.82975 12.1201 5.82975 12.6887V13.5465C5.82975 14.115 6.29064 14.5759 6.85917 14.5759H12.092C12.6605 14.5759 13.1214 14.115 13.1214 13.5465V12.6887ZM29.1631 8.31367C29.1631 7.74515 28.7022 7.28426 28.1337 7.28426H25.8175C25.249 7.28426 24.7881 7.74514 24.7881 8.31367V9.17152C24.7881 9.74004 25.249 10.2009 25.8175 10.2009H28.1337C28.7022 10.2009 29.1631 9.74005 29.1631 9.17152V8.31367Z" fill="url(#paint0_linear_1_1453)"/>
<defs>
<linearGradient id="paint0_linear_1_1453" x1="18.2235" y1="1.45093" x2="18.2235" y2="32.0741" gradientUnits="userSpaceOnUse">
<stop stop-color="#F59E0B"/>
<stop offset="1" stop-color="#E61D2A"/>
</linearGradient>
</defs>
</svg>
