<svg width="13" height="13" viewBox="0 0 13 13" fill="none" xmlns="http://www.w3.org/2000/svg">
<path d="M6.49992 1.08337C9.49154 1.08337 11.9166 3.50842 11.9166 6.50004C11.9166 9.49166 9.49154 11.9167 6.49992 11.9167C3.50829 11.9167 1.08325 9.49166 1.08325 6.50004C1.08325 3.50842 3.50829 1.08337 6.49992 1.08337ZM6.49992 2.16671C5.35065 2.16671 4.24845 2.62325 3.43579 3.43591C2.62313 4.24857 2.16659 5.35077 2.16659 6.50004C2.16659 7.64931 2.62313 8.75151 3.43579 9.56417C4.24845 10.3768 5.35065 10.8334 6.49992 10.8334C7.64919 10.8334 8.75139 10.3768 9.56405 9.56417C10.3767 8.75151 10.8333 7.64931 10.8333 6.50004C10.8333 5.35077 10.3767 4.24857 9.56405 3.43591C8.75139 2.62325 7.64919 2.16671 6.49992 2.16671ZM6.49992 3.25004C6.63259 3.25006 6.76064 3.29877 6.85979 3.38693C6.95893 3.47509 7.02227 3.59657 7.03779 3.72833L7.04158 3.79171V6.27579L8.50788 7.74208C8.60502 7.83956 8.66142 7.97036 8.66563 8.10791C8.66983 8.24547 8.62151 8.37947 8.53049 8.48269C8.43947 8.58591 8.31258 8.65062 8.17558 8.66367C8.03858 8.67672 7.90175 8.63714 7.79288 8.55296L7.74196 8.508L6.11696 6.883C6.03277 6.79874 5.97871 6.68908 5.96313 6.571L5.95825 6.50004V3.79171C5.95825 3.64805 6.01532 3.51027 6.1169 3.40869C6.21848 3.30711 6.35626 3.25004 6.49992 3.25004Z" fill="white"/>
</svg>
