<svg width="11" height="11" viewBox="0 0 11 11" fill="none" xmlns="http://www.w3.org/2000/svg">
<path d="M3.0249 5.22378C3.0249 3.97437 3.0249 3.34966 3.41128 2.96145C3.79811 2.57324 4.42007 2.57324 5.6649 2.57324H6.9849C8.22928 2.57324 8.85169 2.57324 9.23807 2.96145C9.6249 3.34966 9.6249 3.97437 9.6249 5.22378V7.43295C9.6249 8.68237 9.6249 9.30708 9.23807 9.69528C8.85169 10.0835 8.22928 10.0835 6.9849 10.0835H5.6649C4.42007 10.0835 3.79811 10.0835 3.41128 9.69528C3.02444 9.30708 3.0249 8.68237 3.0249 7.43295V5.22378Z" fill="white"/>
<path opacity="0.5" d="M1.91217 1.45367C1.375 1.99038 1.375 2.8548 1.375 4.58317V5.49984C1.375 7.22821 1.375 8.09263 1.91217 8.62934C2.19496 8.91259 2.56896 9.04642 3.113 9.10967C3.025 8.72467 3.025 8.19484 3.025 7.43217V5.22346C3.025 3.97405 3.025 3.34934 3.41137 2.96113C3.79821 2.57292 4.42017 2.57292 5.665 2.57292H6.985C7.74217 2.57292 8.26833 2.57292 8.65242 2.66C8.58917 2.11321 8.45533 1.73784 8.17117 1.45367C7.63446 0.916504 6.77004 0.916504 5.04167 0.916504C3.31329 0.916504 2.44887 0.916504 1.91217 1.45367Z" fill="white"/>
</svg>
