<svg width="17" height="17" viewBox="0 0 17 17" fill="none" xmlns="http://www.w3.org/2000/svg">
<g id="solar:delivery-bold-duotone">
<path id="Vector" d="M1.61301 3.71663C1.63167 3.64936 1.66341 3.58642 1.70641 3.53142C1.74941 3.47642 1.80283 3.43044 1.86362 3.3961C1.92441 3.36176 1.99136 3.33974 2.06067 3.33129C2.12997 3.32285 2.20025 3.32815 2.26751 3.34688L3.4738 3.68122C3.7934 3.76823 4.08506 3.93647 4.32039 4.16957C4.55573 4.40267 4.72674 4.69271 4.8168 5.01147L6.34042 10.5266L6.45234 10.914C6.90408 11.0805 7.28476 11.3974 7.53042 11.8115L7.75001 11.7435L14.0329 10.1108C14.1005 10.0932 14.1708 10.0891 14.2399 10.0987C14.309 10.1083 14.3756 10.1314 14.4358 10.1667C14.4959 10.202 14.5486 10.2489 14.5907 10.3045C14.6328 10.3602 14.6635 10.4236 14.6811 10.4911C14.6986 10.5587 14.7027 10.629 14.6931 10.6981C14.6835 10.7672 14.6604 10.8338 14.6251 10.894C14.5898 10.9542 14.5429 11.0068 14.4873 11.0489C14.4316 11.091 14.3682 11.1217 14.3007 11.1393L8.04113 12.7656L7.80738 12.8378C7.80313 13.7374 7.18192 14.5605 6.24197 14.8042C5.11572 15.0974 3.95759 14.4486 3.65584 13.3563C3.35409 12.2641 4.02276 11.14 5.14901 10.8474C5.2052 10.8333 5.26116 10.821 5.31688 10.8106L3.79255 5.29409C3.75133 5.15246 3.67425 5.02387 3.56877 4.92075C3.4633 4.81763 3.33299 4.74348 3.19047 4.70547L1.98347 4.37043C1.91621 4.35183 1.85327 4.32017 1.79824 4.27725C1.74322 4.23433 1.6972 4.18099 1.66279 4.12028C1.62839 4.05956 1.60629 3.99267 1.59775 3.92341C1.5892 3.85415 1.59439 3.78389 1.61301 3.71663Z" fill="white"/>
<path id="Vector_2" opacity="0.5" d="M6.77464 6.18385L7.13943 7.50348C7.48298 8.7466 7.65439 9.36852 8.15943 9.65114C8.66447 9.93448 9.30552 9.76731 10.5876 9.43439L11.9476 9.08023C13.2297 8.74731 13.8707 8.58085 14.1626 8.09139C14.4544 7.60123 14.283 6.97931 13.9387 5.73618L13.5746 4.41727C13.2311 3.17343 13.059 2.55152 12.5546 2.26889C12.0489 1.98556 11.4078 2.15273 10.1258 2.48635L8.76577 2.8391C7.48368 3.17202 6.84264 3.33918 6.55152 3.82935C6.25968 4.31881 6.4311 4.94072 6.77464 6.18385Z" fill="white"/>
</g>
</svg>
