<svg width="151" height="17" viewBox="0 0 151 17" fill="none" xmlns="http://www.w3.org/2000/svg">
<path d="M0.833333 13.9636C0.833333 15.4364 2.02724 16.6303 3.5 16.6303C4.97276 16.6303 6.16667 15.4364 6.16667 13.9636C6.16667 12.4909 4.97276 11.297 3.5 11.297C2.02724 11.297 0.833333 12.4909 0.833333 13.9636ZM148 13.9636L150.887 8.96364H145.113L148 13.9636ZM4 12.9727C4 12.6966 3.77614 12.4727 3.5 12.4727C3.22386 12.4727 3 12.6966 3 12.9727H4ZM3 10.9909C3 11.2671 3.22386 11.4909 3.5 11.4909C3.77614 11.4909 4 11.2671 4 10.9909H3ZM4.04037 9.16594C4.06711 8.8911 3.86599 8.64661 3.59115 8.61986C3.3163 8.59311 3.07182 8.79423 3.04507 9.06908L4.04037 9.16594ZM3.4068 7.24158C3.32673 7.50586 3.47606 7.78501 3.74034 7.86508C4.00462 7.94515 4.28377 7.79581 4.36384 7.53153L3.4068 7.24158ZM5.00187 5.99276C5.13225 5.74933 5.04061 5.4463 4.79719 5.31592C4.55376 5.18554 4.25073 5.27718 4.12035 5.5206L5.00187 5.99276ZM5.15631 3.97296C4.98101 4.18632 5.01186 4.5014 5.22523 4.6767C5.43859 4.85201 5.75366 4.82115 5.92897 4.60779L5.15631 3.97296ZM7.10779 3.42897C7.32115 3.25367 7.352 2.93859 7.1767 2.72523C7.0014 2.51187 6.68632 2.48101 6.47296 2.65631L7.10779 3.42897ZM8.0206 1.62035C7.77717 1.75074 7.68554 2.05376 7.81592 2.29719C7.9463 2.54061 8.24933 2.63225 8.49275 2.50187L8.0206 1.62035ZM10.0315 1.86384C10.2958 1.78377 10.4451 1.50462 10.3651 1.24034C10.285 0.976062 10.0059 0.82673 9.74157 0.9068L10.0315 1.86384ZM11.5691 0.545068C11.2942 0.571816 11.0931 0.816305 11.1199 1.09115C11.1466 1.36599 11.3911 1.56711 11.6659 1.54037L11.5691 0.545068ZM13.4883 1.5C13.7644 1.5 13.9883 1.27614 13.9883 1C13.9883 0.723858 13.7644 0.5 13.4883 0.5V1.5ZM15.4648 0.5C15.1887 0.5 14.9648 0.723858 14.9648 1C14.9648 1.27614 15.1887 1.5 15.4648 1.5V0.5ZM17.4414 1.5C17.7175 1.5 17.9414 1.27614 17.9414 1C17.9414 0.723858 17.7175 0.5 17.4414 0.5V1.5ZM19.418 0.5C19.1418 0.5 18.918 0.723858 18.918 1C18.918 1.27614 19.1418 1.5 19.418 1.5V0.5ZM21.3945 1.5C21.6707 1.5 21.8945 1.27614 21.8945 1C21.8945 0.723858 21.6707 0.5 21.3945 0.5V1.5ZM23.3711 0.5C23.095 0.5 22.8711 0.723858 22.8711 1C22.8711 1.27614 23.095 1.5 23.3711 1.5V0.5ZM25.3477 1.5C25.6238 1.5 25.8477 1.27614 25.8477 1C25.8477 0.723858 25.6238 0.5 25.3477 0.5V1.5ZM27.3242 0.5C27.0481 0.5 26.8242 0.723858 26.8242 1C26.8242 1.27614 27.0481 1.5 27.3242 1.5V0.5ZM29.3008 1.5C29.5769 1.5 29.8008 1.27614 29.8008 1C29.8008 0.723858 29.5769 0.5 29.3008 0.5V1.5ZM31.2773 0.5C31.0012 0.5 30.7773 0.723858 30.7773 1C30.7773 1.27614 31.0012 1.5 31.2773 1.5V0.5ZM33.2539 1.5C33.53 1.5 33.7539 1.27614 33.7539 1C33.7539 0.723858 33.53 0.5 33.2539 0.5V1.5ZM35.2305 0.5C34.9543 0.5 34.7305 0.723858 34.7305 1C34.7305 1.27614 34.9543 1.5 35.2305 1.5V0.5ZM37.207 1.5C37.4832 1.5 37.707 1.27614 37.707 1C37.707 0.723858 37.4832 0.5 37.207 0.5V1.5ZM39.1836 0.5C38.9075 0.5 38.6836 0.723858 38.6836 1C38.6836 1.27614 38.9075 1.5 39.1836 1.5V0.5ZM41.1602 1.5C41.4363 1.5 41.6602 1.27614 41.6602 1C41.6602 0.723858 41.4363 0.5 41.1602 0.5V1.5ZM43.1367 0.5C42.8606 0.5 42.6367 0.723858 42.6367 1C42.6367 1.27614 42.8606 1.5 43.1367 1.5V0.5ZM45.1133 1.5C45.3894 1.5 45.6133 1.27614 45.6133 1C45.6133 0.723858 45.3894 0.5 45.1133 0.5V1.5ZM47.0898 0.5C46.8137 0.5 46.5898 0.723858 46.5898 1C46.5898 1.27614 46.8137 1.5 47.0898 1.5V0.5ZM49.0664 1.5C49.3425 1.5 49.5664 1.27614 49.5664 1C49.5664 0.723858 49.3425 0.5 49.0664 0.5V1.5ZM51.043 0.5C50.7668 0.5 50.543 0.723858 50.543 1C50.543 1.27614 50.7668 1.5 51.043 1.5V0.5ZM53.0195 1.5C53.2957 1.5 53.5195 1.27614 53.5195 1C53.5195 0.723858 53.2957 0.5 53.0195 0.5V1.5ZM54.9961 0.5C54.72 0.5 54.4961 0.723858 54.4961 1C54.4961 1.27614 54.72 1.5 54.9961 1.5V0.5ZM56.9727 1.5C57.2488 1.5 57.4727 1.27614 57.4727 1C57.4727 0.723858 57.2488 0.5 56.9727 0.5V1.5ZM58.9492 0.5C58.6731 0.5 58.4492 0.723858 58.4492 1C58.4492 1.27614 58.6731 1.5 58.9492 1.5V0.5ZM60.9258 1.5C61.2019 1.5 61.4258 1.27614 61.4258 1C61.4258 0.723858 61.2019 0.5 60.9258 0.5V1.5ZM62.9023 0.5C62.6262 0.5 62.4023 0.723858 62.4023 1C62.4023 1.27614 62.6262 1.5 62.9023 1.5V0.5ZM64.8789 1.5C65.155 1.5 65.3789 1.27614 65.3789 1C65.3789 0.723858 65.155 0.5 64.8789 0.5V1.5ZM66.8555 0.5C66.5793 0.5 66.3555 0.723858 66.3555 1C66.3555 1.27614 66.5793 1.5 66.8555 1.5V0.5ZM68.832 1.5C69.1082 1.5 69.332 1.27614 69.332 1C69.332 0.723858 69.1082 0.5 68.832 0.5V1.5ZM70.8086 0.5C70.5324 0.5 70.3086 0.723858 70.3086 1C70.3086 1.27614 70.5324 1.5 70.8086 1.5V0.5ZM72.7852 1.5C73.0613 1.5 73.2852 1.27614 73.2852 1C73.2852 0.723858 73.0613 0.5 72.7852 0.5V1.5ZM74.7617 0.5C74.4856 0.5 74.2617 0.723858 74.2617 1C74.2617 1.27614 74.4856 1.5 74.7617 1.5V0.5ZM76.7383 1.5C77.0144 1.5 77.2383 1.27614 77.2383 1C77.2383 0.723858 77.0144 0.5 76.7383 0.5V1.5ZM78.7148 0.5C78.4387 0.5 78.2148 0.723858 78.2148 1C78.2148 1.27614 78.4387 1.5 78.7148 1.5V0.5ZM80.6914 1.5C80.9675 1.5 81.1914 1.27614 81.1914 1C81.1914 0.723858 80.9675 0.5 80.6914 0.5V1.5ZM82.668 0.5C82.3918 0.5 82.168 0.723858 82.168 1C82.168 1.27614 82.3918 1.5 82.668 1.5V0.5ZM84.6445 1.5C84.9207 1.5 85.1445 1.27614 85.1445 1C85.1445 0.723858 84.9207 0.5 84.6445 0.5V1.5ZM86.6211 0.5C86.3449 0.5 86.1211 0.723858 86.1211 1C86.1211 1.27614 86.3449 1.5 86.6211 1.5V0.5ZM88.5977 1.5C88.8738 1.5 89.0977 1.27614 89.0977 1C89.0977 0.723858 88.8738 0.5 88.5977 0.5V1.5ZM90.5742 0.5C90.2981 0.5 90.0742 0.723858 90.0742 1C90.0742 1.27614 90.2981 1.5 90.5742 1.5V0.5ZM92.5508 1.5C92.8269 1.5 93.0508 1.27614 93.0508 1C93.0508 0.723858 92.8269 0.5 92.5508 0.5V1.5ZM94.5273 0.5C94.2512 0.5 94.0273 0.723858 94.0273 1C94.0273 1.27614 94.2512 1.5 94.5273 1.5V0.5ZM96.5039 1.5C96.78 1.5 97.0039 1.27614 97.0039 1C97.0039 0.723858 96.78 0.5 96.5039 0.5V1.5ZM98.4805 0.5C98.2043 0.5 97.9805 0.723858 97.9805 1C97.9805 1.27614 98.2043 1.5 98.4805 1.5V0.5ZM100.457 1.5C100.733 1.5 100.957 1.27614 100.957 1C100.957 0.723858 100.733 0.5 100.457 0.5V1.5ZM102.434 0.5C102.157 0.5 101.934 0.723858 101.934 1C101.934 1.27614 102.157 1.5 102.434 1.5V0.5ZM104.41 1.5C104.686 1.5 104.91 1.27614 104.91 1C104.91 0.723858 104.686 0.5 104.41 0.5V1.5ZM106.387 0.5C106.111 0.5 105.887 0.723858 105.887 1C105.887 1.27614 106.111 1.5 106.387 1.5V0.5ZM108.363 1.5C108.639 1.5 108.863 1.27614 108.863 1C108.863 0.723858 108.639 0.5 108.363 0.5V1.5ZM110.34 0.5C110.064 0.5 109.84 0.723858 109.84 1C109.84 1.27614 110.064 1.5 110.34 1.5V0.5ZM112.316 1.5C112.593 1.5 112.816 1.27614 112.816 1C112.816 0.723858 112.593 0.5 112.316 0.5V1.5ZM114.293 0.5C114.017 0.5 113.793 0.723858 113.793 1C113.793 1.27614 114.017 1.5 114.293 1.5V0.5ZM116.27 1.5C116.546 1.5 116.77 1.27614 116.77 1C116.77 0.723858 116.546 0.5 116.27 0.5V1.5ZM118.246 0.5C117.97 0.5 117.746 0.723858 117.746 1C117.746 1.27614 117.97 1.5 118.246 1.5V0.5ZM120.223 1.5C120.499 1.5 120.723 1.27614 120.723 1C120.723 0.723858 120.499 0.5 120.223 0.5V1.5ZM122.199 0.5C121.923 0.5 121.699 0.723858 121.699 1C121.699 1.27614 121.923 1.5 122.199 1.5V0.5ZM124.176 1.5C124.452 1.5 124.676 1.27614 124.676 1C124.676 0.723858 124.452 0.5 124.176 0.5V1.5ZM126.152 0.5C125.876 0.5 125.652 0.723858 125.652 1C125.652 1.27614 125.876 1.5 126.152 1.5V0.5ZM128.129 1.5C128.405 1.5 128.629 1.27614 128.629 1C128.629 0.723858 128.405 0.5 128.129 0.5V1.5ZM130.105 0.5C129.829 0.5 129.605 0.723858 129.605 1C129.605 1.27614 129.829 1.5 130.105 1.5V0.5ZM132.082 1.5C132.358 1.5 132.582 1.27614 132.582 1C132.582 0.723858 132.358 0.5 132.082 0.5V1.5ZM134.059 0.5C133.782 0.5 133.559 0.723858 133.559 1C133.559 1.27614 133.782 1.5 134.059 1.5V0.5ZM136.035 1.5C136.311 1.5 136.535 1.27614 136.535 1C136.535 0.723858 136.311 0.5 136.035 0.5V1.5ZM138.012 0.5C137.736 0.5 137.512 0.723858 137.512 1C137.512 1.27614 137.736 1.5 138.012 1.5V0.5ZM139.834 1.54037C140.109 1.56711 140.353 1.36599 140.38 1.09115C140.407 0.816305 140.206 0.571816 139.931 0.545068L139.834 1.54037ZM141.758 0.906799C141.494 0.82673 141.215 0.976062 141.135 1.24034C141.055 1.50462 141.204 1.78377 141.468 1.86384L141.758 0.906799ZM143.007 2.50187C143.251 2.63225 143.554 2.54061 143.684 2.29719C143.814 2.05376 143.723 1.75073 143.479 1.62035L143.007 2.50187ZM145.027 2.65631C144.814 2.48101 144.499 2.51186 144.323 2.72523C144.148 2.93859 144.179 3.25366 144.392 3.42897L145.027 2.65631ZM145.571 4.60779C145.746 4.82115 146.061 4.852 146.275 4.6767C146.488 4.5014 146.519 4.18632 146.344 3.97296L145.571 4.60779ZM147.38 5.5206C147.249 5.27717 146.946 5.18554 146.703 5.31592C146.459 5.4463 146.368 5.74933 146.498 5.99275L147.38 5.5206ZM147.136 7.53153C147.216 7.79581 147.495 7.94514 147.76 7.86507C148.024 7.785 148.173 7.50585 148.093 7.24157L147.136 7.53153ZM148.455 9.06907C148.428 8.79423 148.184 8.59311 147.909 8.61986C147.634 8.64661 147.433 8.89109 147.46 9.16594L148.455 9.06907ZM147.5 10.9909C147.5 11.2671 147.724 11.4909 148 11.4909C148.276 11.4909 148.5 11.2671 148.5 10.9909H147.5ZM148.5 12.9727C148.5 12.6966 148.276 12.4727 148 12.4727C147.724 12.4727 147.5 12.6966 147.5 12.9727H148.5ZM4 13.9636V12.9727H3V13.9636H4ZM4 10.9909V10H3V10.9909H4ZM4 10C4 9.71844 4.01367 9.44022 4.04037 9.16594L3.04507 9.06908C3.01525 9.37549 3 9.68604 3 10H4ZM4.36384 7.53153C4.52662 6.99424 4.74122 6.47939 5.00187 5.99276L4.12035 5.5206C3.82895 6.06466 3.58891 6.64049 3.4068 7.24158L4.36384 7.53153ZM5.92897 4.60779C6.28251 4.17749 6.67749 3.78251 7.10779 3.42897L6.47296 2.65631C5.99234 3.0512 5.5512 3.49234 5.15631 3.97296L5.92897 4.60779ZM8.49275 2.50187C8.97938 2.24122 9.49424 2.02662 10.0315 1.86384L9.74157 0.9068C9.14049 1.08891 8.56465 1.32895 8.0206 1.62035L8.49275 2.50187ZM11.6659 1.54037C11.9402 1.51367 12.2184 1.5 12.5 1.5V0.5C12.186 0.5 11.8755 0.515247 11.5691 0.545068L11.6659 1.54037ZM12.5 1.5H13.4883V0.5H12.5V1.5ZM15.4648 1.5H17.4414V0.5H15.4648V1.5ZM19.418 1.5H21.3945V0.5H19.418V1.5ZM23.3711 1.5H25.3477V0.5H23.3711V1.5ZM27.3242 1.5H29.3008V0.5H27.3242V1.5ZM31.2773 1.5H33.2539V0.5H31.2773V1.5ZM35.2305 1.5H37.207V0.5H35.2305V1.5ZM39.1836 1.5H41.1602V0.5H39.1836V1.5ZM43.1367 1.5H45.1133V0.5H43.1367V1.5ZM47.0898 1.5H49.0664V0.5H47.0898V1.5ZM51.043 1.5H53.0195V0.5H51.043V1.5ZM54.9961 1.5H56.9727V0.5H54.9961V1.5ZM58.9492 1.5H60.9258V0.5H58.9492V1.5ZM62.9023 1.5H64.8789V0.5H62.9023V1.5ZM66.8555 1.5H68.832V0.5H66.8555V1.5ZM70.8086 1.5H72.7852V0.5H70.8086V1.5ZM74.7617 1.5H76.7383V0.5H74.7617V1.5ZM78.7148 1.5H80.6914V0.5H78.7148V1.5ZM82.668 1.5H84.6445V0.5H82.668V1.5ZM86.6211 1.5H88.5977V0.5H86.6211V1.5ZM90.5742 1.5H92.5508V0.5H90.5742V1.5ZM94.5273 1.5H96.5039V0.5H94.5273V1.5ZM98.4805 1.5H100.457V0.5H98.4805V1.5ZM102.434 1.5H104.41V0.5H102.434V1.5ZM106.387 1.5H108.363V0.5H106.387V1.5ZM110.34 1.5H112.316V0.5H110.34V1.5ZM114.293 1.5H116.27V0.5H114.293V1.5ZM118.246 1.5H120.223V0.5H118.246V1.5ZM122.199 1.5H124.176V0.5H122.199V1.5ZM126.152 1.5H128.129V0.5H126.152V1.5ZM130.105 1.5H132.082V0.5H130.105V1.5ZM134.059 1.5H136.035V0.5H134.059V1.5ZM138.012 1.5H139V0.5H138.012V1.5ZM139 1.5C139.282 1.5 139.56 1.51367 139.834 1.54037L139.931 0.545068C139.625 0.515247 139.314 0.5 139 0.5V1.5ZM141.468 1.86384C142.006 2.02662 142.521 2.24122 143.007 2.50187L143.479 1.62035C142.935 1.32895 142.36 1.08891 141.758 0.906799L141.468 1.86384ZM144.392 3.42897C144.823 3.78251 145.217 4.17749 145.571 4.60779L146.344 3.97296C145.949 3.49234 145.508 3.0512 145.027 2.65631L144.392 3.42897ZM146.498 5.99275C146.759 6.47938 146.973 6.99424 147.136 7.53153L148.093 7.24157C147.911 6.64049 147.671 6.06465 147.38 5.5206L146.498 5.99275ZM147.46 9.16594C147.486 9.44021 147.5 9.71843 147.5 10H148.5C148.5 9.68604 148.485 9.37549 148.455 9.06907L147.46 9.16594ZM147.5 10V10.9909H148.5V10H147.5Z" fill="url(#paint0_linear_427_1874)"/>
<defs>
<linearGradient id="paint0_linear_427_1874" x1="75.75" y1="2.4958" x2="75.75" y2="13.9636" gradientUnits="userSpaceOnUse">
<stop stop-color="#8F5C06"/>
<stop offset="1" stop-color="#F59E0B"/>
</linearGradient>
</defs>
</svg>
