<svg width="21" height="21" viewBox="0 0 21 21" fill="none" xmlns="http://www.w3.org/2000/svg">
<path d="M17.0625 4.59375H14.7886L13.6705 2.91703C13.6106 2.82725 13.5295 2.75363 13.4343 2.70269C13.3392 2.65175 13.2329 2.62506 13.125 2.625H7.875C7.76707 2.62506 7.66082 2.65175 7.56567 2.70269C7.47051 2.75363 7.38939 2.82725 7.32949 2.91703L6.21059 4.59375H3.9375C3.41536 4.59375 2.9146 4.80117 2.54538 5.17038C2.17617 5.5396 1.96875 6.04035 1.96875 6.5625V15.75C1.96875 16.2721 2.17617 16.7729 2.54538 17.1421C2.9146 17.5113 3.41536 17.7188 3.9375 17.7188H17.0625C17.5846 17.7188 18.0854 17.5113 18.4546 17.1421C18.8238 16.7729 19.0312 16.2721 19.0312 15.75V6.5625C19.0312 6.04035 18.8238 5.5396 18.4546 5.17038C18.0854 4.80117 17.5846 4.59375 17.0625 4.59375ZM13.4531 10.8281C13.4531 11.4122 13.2799 11.9832 12.9554 12.4688C12.6309 12.9544 12.1697 13.3329 11.6301 13.5565C11.0905 13.78 10.4967 13.8385 9.92387 13.7245C9.35102 13.6106 8.82483 13.3293 8.41183 12.9163C7.99882 12.5033 7.71757 11.9771 7.60362 11.4043C7.48967 10.8314 7.54815 10.2376 7.77167 9.69801C7.99518 9.1584 8.37369 8.69718 8.85933 8.37269C9.34497 8.0482 9.91593 7.875 10.5 7.875C11.2832 7.875 12.0344 8.18613 12.5882 8.73995C13.142 9.29377 13.4531 10.0449 13.4531 10.8281Z" fill="url(#paint0_linear_1266_786)"/>
<defs>
<linearGradient id="paint0_linear_1266_786" x1="1.96875" y1="10.1719" x2="19.0312" y2="10.1719" gradientUnits="userSpaceOnUse">
<stop stop-color="#F59E0B"/>
<stop offset="1" stop-color="#E61D2A"/>
</linearGradient>
</defs>
</svg>
