<svg width="111" height="79" viewBox="0 0 111 79" fill="none" xmlns="http://www.w3.org/2000/svg">
<path d="M13.046 57.3707C13.7406 60.8437 15.234 63.4831 17.5261 65.289C19.8183 67.095 22.9092 67.9979 26.7989 67.9979C31.7305 67.9979 35.3423 66.0531 37.6345 62.1634C39.9266 58.2737 41.0727 51.6404 41.0727 42.2634C39.4057 44.625 37.0441 46.4657 33.9879 47.7854C31.0012 49.0356 27.7366 49.6608 24.1942 49.6608C19.6794 49.6608 15.5813 48.7578 11.9 46.9519C8.21865 45.0765 5.30138 42.3329 3.14815 38.721C1.06438 35.0397 0.0225005 30.5943 0.0225005 25.3849C0.0225005 17.7444 2.24518 11.6668 6.69055 7.15195C11.2054 2.56766 17.3872 0.275516 25.2361 0.275516C34.6825 0.275516 41.3853 3.4359 45.3444 9.75665C49.373 16.008 51.3873 25.628 51.3873 38.6168C51.3873 47.577 50.6233 54.9049 49.0952 60.6006C47.6366 66.2962 45.0666 70.6026 41.3853 73.5199C37.7039 76.4372 32.5987 77.8958 26.0696 77.8958C18.6375 77.8958 12.9071 75.951 8.87851 72.0613C4.84989 68.1716 2.59248 63.2747 2.10627 57.3707H13.046ZM26.278 39.6587C30.4455 39.6587 33.7101 38.3737 36.0717 35.8037C38.5027 33.1643 39.7182 29.6914 39.7182 25.3849C39.7182 20.5922 38.4333 16.8762 35.8633 14.2368C33.3628 11.5279 29.9245 10.1734 25.5486 10.1734C21.1727 10.1734 17.6998 11.5626 15.1298 14.3409C12.6293 17.0498 11.379 20.627 11.379 25.0723C11.379 29.3093 12.5946 32.817 15.0256 35.5954C17.5261 38.3043 21.2769 39.6587 26.278 39.6587ZM78.0143 5.58912L76.6598 56.1205H66.7619L65.4075 5.58912H78.0143ZM72.0756 78.7293C69.9223 78.7293 68.1164 78 66.6578 76.5414C65.1991 75.0827 64.4698 73.2768 64.4698 71.1236C64.4698 68.9703 65.1991 67.1644 66.6578 65.7058C68.1164 64.2471 69.9223 63.5178 72.0756 63.5178C74.1593 63.5178 75.9305 64.2471 77.3892 65.7058C78.8478 67.1644 79.5771 68.9703 79.5771 71.1236C79.5771 73.2768 78.8478 75.0827 77.3892 76.5414C75.9305 78 74.1593 78.7293 72.0756 78.7293ZM108.655 5.58912L107.3 56.1205H97.4026L96.0481 5.58912H108.655ZM102.716 78.7293C100.563 78.7293 98.757 78 97.2984 76.5414C95.8398 75.0827 95.1104 73.2768 95.1104 71.1236C95.1104 68.9703 95.8398 67.1644 97.2984 65.7058C98.757 64.2471 100.563 63.5178 102.716 63.5178C104.8 63.5178 106.571 64.2471 108.03 65.7058C109.488 67.1644 110.218 68.9703 110.218 71.1236C110.218 73.2768 109.488 75.0827 108.03 76.5414C106.571 78 104.8 78.7293 102.716 78.7293Z" fill="white"/>
</svg>
