<svg width="58" height="58" viewBox="0 0 58 58" fill="none" xmlns="http://www.w3.org/2000/svg">
<path d="M28.9344 50.1541C28.4474 50.1541 27.9683 50.054 27.4973 49.8537C27.0246 49.6535 26.5928 49.3699 26.2019 49.003L8.99447 31.7955C8.62917 31.4062 8.34639 30.9752 8.14611 30.5026C7.94584 30.0315 7.8457 29.5525 7.8457 29.0654C7.8457 28.5784 7.94264 28.0961 8.1365 27.6186C8.33036 27.1412 8.61715 26.7126 8.99687 26.3329L26.2043 9.12545C26.5936 8.72651 27.0246 8.43491 27.4973 8.25066C27.9683 8.06801 28.4474 7.97668 28.9344 7.97668C29.4215 7.97668 29.9038 8.07121 30.3812 8.26027C30.8587 8.45093 31.2872 8.73932 31.667 9.12545L48.8744 26.3329C49.2605 26.7126 49.5489 27.1372 49.7396 27.6066C49.9286 28.0777 50.0232 28.5639 50.0232 29.0654C50.0232 29.5525 49.9318 30.0315 49.7492 30.5026C49.5649 30.9752 49.2725 31.407 48.872 31.7979L31.6646 49.0054C31.2864 49.3835 30.8619 49.6695 30.3908 49.8633C29.9198 50.0572 29.4343 50.1541 28.9344 50.1541ZM27.7328 31.8845H30.1361V19.3153H27.7328V31.8845ZM28.9344 37.2438C29.3542 37.2438 29.7051 37.1028 29.9871 36.8208C30.2707 36.5372 30.4124 36.1855 30.4124 35.7657C30.4124 35.3476 30.2707 34.9967 29.9871 34.7131C29.7051 34.4295 29.3542 34.2877 28.9344 34.2877C28.5147 34.2877 28.1638 34.4295 27.8818 34.7131C27.5982 34.9967 27.4564 35.3476 27.4564 35.7657C27.4564 36.1855 27.5982 36.5372 27.8818 36.8208C28.1638 37.1044 28.5147 37.2462 28.9344 37.2462" fill="#DF0000"/>
</svg>
