<svg width="14" height="15" viewBox="0 0 14 15" fill="none" xmlns="http://www.w3.org/2000/svg">
<path d="M12.637 5.12657C12.3303 4.39448 11.884 3.72906 11.3232 3.1674C10.764 2.60475 10.0997 2.15742 9.36809 1.85079C8.61862 1.53515 7.81335 1.37336 7.00012 1.37501H6.97278C6.14563 1.37911 5.34582 1.54318 4.5925 1.86583C3.86717 2.1756 3.20914 2.62373 2.6552 3.18517C2.09975 3.74557 1.65862 4.40867 1.35637 5.13751C1.04262 5.89543 0.883644 6.70845 0.888793 7.52872C0.892895 8.47755 1.11985 9.41954 1.54368 10.2617V12.3399C1.54368 12.6871 1.82532 12.9688 2.17122 12.9688H4.24661C5.09272 13.3957 6.02642 13.6204 6.97414 13.625H7.00286C7.82043 13.625 8.61204 13.4664 9.35852 13.1561C10.0864 12.8531 10.7482 12.411 11.3068 11.8545C11.87 11.2953 12.313 10.6418 12.6234 9.9131C12.9447 9.15841 13.1087 8.35587 13.1128 7.52736C13.1156 6.69474 12.9542 5.88673 12.637 5.12657ZM4.27121 8.15626C3.91028 8.15626 3.61633 7.86232 3.61633 7.50001C3.61633 7.13771 3.91028 6.84376 4.27121 6.84376C4.63215 6.84376 4.9261 7.13771 4.9261 7.50001C4.9261 7.86232 4.63352 8.15626 4.27121 8.15626ZM7.00012 8.15626C6.63918 8.15626 6.34524 7.86232 6.34524 7.50001C6.34524 7.13771 6.63918 6.84376 7.00012 6.84376C7.36106 6.84376 7.655 7.13771 7.655 7.50001C7.655 7.86232 7.36106 8.15626 7.00012 8.15626ZM9.72903 8.15626C9.36809 8.15626 9.07414 7.86232 9.07414 7.50001C9.07414 7.13771 9.36809 6.84376 9.72903 6.84376C10.09 6.84376 10.3839 7.13771 10.3839 7.50001C10.3839 7.86232 10.09 8.15626 9.72903 8.15626Z" fill="url(#paint0_linear_154_2025)"/>
<defs>
<linearGradient id="paint0_linear_154_2025" x1="0.888672" y1="7.50001" x2="13.1129" y2="7.50001" gradientUnits="userSpaceOnUse">
<stop stop-color="#F59E0B"/>
<stop offset="1" stop-color="#E61D2A"/>
</linearGradient>
</defs>
</svg>
