<svg width="174" height="174" viewBox="0 0 174 174" fill="none" xmlns="http://www.w3.org/2000/svg">
<g clip-path="url(#clip0_1_2370)">
<path d="M164.5 53.5068C160.378 47.5657 154.217 42.2203 146.019 37.4862C137.82 32.7522 128.556 29.1938 118.257 26.8268C107.958 24.4441 97.4867 23.237 86.8429 23.2213C76.2148 23.2057 65.7595 24.3657 55.4762 26.7013C45.193 29.0527 35.9912 32.564 27.8398 37.2825C19.6885 41.9852 13.5908 47.2992 9.53075 53.2403C5.48643 59.1657 3.46412 65.2008 3.49548 71.3457C3.52683 76.5971 5.04724 81.77 8.07265 86.8803C8.58995 87.7581 9.13869 88.6203 9.73436 89.4825C12.3679 93.2917 15.8481 96.8657 20.1746 100.173C22.5887 102.023 25.269 103.81 28.2004 105.503C36.4144 110.237 45.6629 113.795 55.9619 116.178C66.2608 118.545 76.7323 119.752 87.3761 119.768C88.3166 119.768 89.2415 119.768 90.182 119.737C96.562 119.627 102.879 119.094 109.134 118.106C112.363 117.62 115.561 117.009 118.743 116.288C122.317 115.473 125.766 114.517 129.074 113.404C135.297 111.366 141.065 108.795 146.379 105.722C154.531 101.02 160.628 95.69 164.688 89.7646C165.206 88.9965 165.707 88.2284 166.162 87.4603C169.203 82.303 170.724 77.083 170.724 71.7846V71.6435C170.692 65.5144 168.607 59.4635 164.5 53.5068ZM140.94 94.6711C139.027 96.1133 136.88 97.5084 134.529 98.8722C129.701 101.662 124.512 103.935 118.994 105.691C115.937 106.679 112.771 107.494 109.495 108.152C102.926 109.469 95.9507 110.159 88.5204 110.206C88.1285 110.221 87.7365 110.221 87.3289 110.221C69.004 110.19 53.2188 106.349 39.9885 98.6998C33.7653 95.11 29.0157 91.2068 25.6924 86.9587C22.4789 82.8517 20.6292 78.4311 20.1746 73.6971C20.0962 72.929 20.049 72.1608 20.049 71.3771C19.9863 60.796 26.5389 51.7198 39.6908 44.1171L40.5687 43.6154C51.2281 46.4684 62.3108 47.9733 73.8324 48.0987C85.3541 48.2398 96.5307 47.0014 107.347 44.4149C107.049 46.1079 106.908 47.8008 106.923 49.4781C106.939 51.7354 107.221 53.9614 107.77 56.1873C108.554 59.3225 109.886 62.4262 111.752 65.483C115.921 72.3176 122.505 78.3214 131.488 83.51C133.761 84.8268 136.065 86.0181 138.385 87.0684C140.705 88.1187 143.15 89.1063 145.705 90.0311C144.435 91.6771 142.852 93.2133 140.94 94.6711Z" fill="url(#paint0_linear_1_2370)" stroke="white" stroke-width="1.56757" stroke-linecap="round" stroke-linejoin="round"/>
<path d="M145.705 90.0308C144.436 91.6767 142.852 93.2129 140.94 94.6708C139.027 96.1129 136.88 97.5081 134.529 98.8718C129.701 101.662 124.512 103.935 118.994 105.691C116.078 102.916 113.664 99.9691 111.752 96.834C110.89 95.4075 110.137 93.981 109.495 92.5389V85.187C109.495 83.6978 108.632 82.3967 106.94 81.2681C106.924 80.9545 106.924 80.641 106.924 80.3275V49.4778C106.94 51.7351 107.222 53.961 107.77 56.187C108.554 59.3221 109.887 62.4259 111.752 65.4827C115.922 72.3172 122.506 78.321 131.488 83.5097C133.761 84.8264 136.065 86.0178 138.385 87.0681C140.705 88.1183 143.15 89.1059 145.705 90.0308Z" fill="url(#paint1_linear_1_2370)" stroke="white" stroke-width="1.56757" stroke-linecap="round" stroke-linejoin="round"/>
<path d="M73.9265 64.6522V64.6836C73.9265 66.3139 72.8921 67.7403 70.8543 68.916C68.7851 70.1074 66.324 70.6874 63.471 70.6874C60.618 70.6874 58.157 70.076 56.0721 68.8847C54.0029 67.6776 52.9526 66.2668 52.9526 64.6052C52.9526 62.9593 53.9716 61.5484 56.0251 60.3571C58.0943 59.1657 60.5553 58.5701 63.4083 58.5701C66.2613 58.5857 68.7222 59.1814 70.8071 60.3728C72.8763 61.5798 73.9109 63.0063 73.9265 64.6522Z" fill="url(#paint2_linear_1_2370)" stroke="white" stroke-width="1.56757" stroke-linecap="round" stroke-linejoin="round"/>
<path d="M109.495 85.1872V108.152C102.927 109.469 95.9508 110.159 88.5205 110.206V85.1401C88.5205 86.8018 89.5708 88.2126 91.64 89.4196C93.7092 90.6109 96.1858 91.2066 99.0387 91.2223C101.892 91.2223 104.353 90.6266 106.407 89.4353C107.018 89.0747 107.551 88.7142 107.974 88.291C108.993 87.3818 109.495 86.3472 109.495 85.1872Z" fill="url(#paint3_linear_1_2370)" stroke="white" stroke-width="1.56757" stroke-linecap="round" stroke-linejoin="round"/>
<path d="M109.495 85.1869C109.495 86.3469 108.993 87.3815 107.974 88.2907C107.551 88.7139 107.018 89.0745 106.407 89.435C104.353 90.6264 101.892 91.222 99.0389 91.222C96.1859 91.2064 93.7093 90.6107 91.6401 89.4193C89.571 88.2123 88.5207 86.8015 88.5207 85.1399C88.505 83.4939 89.5394 82.0831 91.593 80.8918C93.6621 79.7004 96.1079 79.1047 98.9765 79.1047C101.829 79.1204 104.291 79.7161 106.36 80.9074C106.564 81.0328 106.767 81.1426 106.94 81.268C108.633 82.3966 109.479 83.6977 109.495 85.1869Z" fill="url(#paint4_linear_1_2370)" stroke="white" stroke-width="1.56757" stroke-linecap="round" stroke-linejoin="round"/>
<path d="M40.5689 74.9667L39.6909 75.4683C33.6087 78.9796 28.9532 82.8045 25.6927 86.9586C22.4792 82.8515 20.6294 78.431 20.1748 73.6969C20.0965 72.9288 20.0493 72.1607 20.0493 71.3769C19.9866 60.7959 26.539 51.7196 39.6909 44.1169L40.2237 62.7083L40.5689 74.9667Z" fill="url(#paint5_linear_1_2370)" stroke="white" stroke-width="1.56757" stroke-linecap="round" stroke-linejoin="round"/>
<path d="M107.347 44.4149C107.049 46.1079 106.908 47.8009 106.924 49.4782V75.8603C96.2643 78.3841 85.2598 79.5755 73.9263 79.4501V64.6522C73.9106 63.0063 72.876 61.5798 70.8068 60.3728C68.722 59.1814 66.261 58.5858 63.4081 58.5701C60.5551 58.5701 58.094 59.1657 56.0248 60.3571C53.9713 61.5485 52.9367 62.9593 52.9524 64.6052V77.6317C48.767 76.942 44.6444 76.0485 40.5688 74.9668L40.2236 62.7085L39.6909 44.1171L40.5688 43.6155C51.2282 46.4685 62.3109 47.9733 73.8325 48.0987C85.3542 48.2398 96.5308 47.0014 107.347 44.4149Z" fill="url(#paint6_linear_1_2370)" stroke="white" stroke-width="1.56757" stroke-linecap="round" stroke-linejoin="round"/>
<path d="M170.724 71.7846V102.995C170.755 109.14 168.749 115.175 164.689 121.116C160.629 127.041 154.531 132.371 146.38 137.074C138.244 141.777 129.026 145.304 118.743 147.639C108.46 149.975 98.0043 151.135 87.3762 151.119C76.7324 151.104 66.261 149.897 55.9621 147.529C45.6632 145.147 36.4146 141.588 28.2005 136.854C20.0021 132.12 13.8415 126.775 9.73449 120.834C5.61179 114.877 3.52696 108.842 3.49561 102.697V71.3457C3.52696 76.5971 5.04737 81.77 8.07278 86.8803C8.59007 87.7581 9.13882 88.6203 9.73449 89.4825C12.368 93.2916 15.8482 96.8657 20.1747 100.173C22.5888 102.023 25.2691 103.81 28.2005 105.503C36.4146 110.237 45.6632 113.795 55.9621 116.178C66.261 118.545 76.7324 119.752 87.3762 119.768C88.3167 119.768 89.2416 119.768 90.1821 119.737C96.5621 119.627 102.88 119.094 109.134 118.106C112.363 117.62 115.561 117.009 118.743 116.288C122.317 115.473 125.766 114.517 129.074 113.404C135.297 111.366 141.066 108.795 146.38 105.722C154.531 101.02 160.629 95.69 164.689 89.7646C165.206 88.9965 165.708 88.2284 166.162 87.4603C169.203 82.303 170.724 77.083 170.724 71.7846Z" fill="url(#paint7_linear_1_2370)" stroke="white" stroke-width="1.56757" stroke-linecap="round" stroke-linejoin="round"/>
<path d="M170.228 100.439V131.649C170.259 137.794 168.253 143.829 164.193 149.77C160.133 155.696 154.035 161.025 145.884 165.728C137.748 170.431 128.531 173.958 118.248 176.294C107.964 178.629 97.5087 179.789 86.8806 179.774C76.2368 179.758 65.7654 178.551 55.4665 176.184C45.1676 173.801 35.9189 170.243 27.7049 165.509C19.5065 160.775 13.3459 155.429 9.23889 149.488C5.11618 143.531 3.03135 137.496 3 131.351V100C3.03135 105.251 4.55177 110.424 7.57717 115.535C8.09447 116.412 8.64321 117.275 9.23889 118.137C11.8724 121.946 15.3526 125.52 19.6791 128.828C22.0932 130.677 24.7735 132.464 27.7049 134.157C35.9189 138.891 45.1676 142.45 55.4665 144.832C65.7654 147.199 76.2368 148.406 86.8806 148.422C87.8211 148.422 88.746 148.422 89.6865 148.391C96.0665 148.281 102.384 147.748 108.639 146.761C111.868 146.275 115.065 145.663 118.248 144.942C121.822 144.127 125.27 143.171 128.578 142.058C134.801 140.02 140.57 137.449 145.884 134.377C154.035 129.674 160.133 124.344 164.193 118.419C164.71 117.651 165.212 116.883 165.667 116.115C168.708 110.957 170.228 105.737 170.228 100.439Z" fill="#F9F9F9"/>
<path d="M73.9265 64.6834V96.0034C73.9422 97.6493 72.9078 99.0758 70.8543 100.267C68.7851 101.458 66.324 102.038 63.471 102.038C60.618 102.038 58.157 101.427 56.0721 100.236C54.0029 99.0288 52.9526 97.618 52.9526 95.9563V64.605C52.9526 66.2666 54.0029 67.6774 56.0721 68.8844C58.157 70.0758 60.618 70.6871 63.471 70.6871C66.324 70.6871 68.7851 70.1071 70.8543 68.9158C72.8921 67.7401 73.9265 66.3136 73.9265 64.6834Z" fill="url(#paint8_linear_1_2370)" stroke="white" stroke-width="1.56757" stroke-linecap="round" stroke-linejoin="round"/>
</g>
<defs>
<linearGradient id="paint0_linear_1_2370" x1="87.1094" y1="23.2212" x2="87.1094" y2="119.768" gradientUnits="userSpaceOnUse">
<stop stop-color="#F59E0B"/>
<stop offset="1" stop-color="#E61D2A"/>
</linearGradient>
<linearGradient id="paint1_linear_1_2370" x1="126.315" y1="49.4778" x2="126.315" y2="105.691" gradientUnits="userSpaceOnUse">
<stop stop-color="#F59E0B"/>
<stop offset="1" stop-color="#E61D2A"/>
</linearGradient>
<linearGradient id="paint2_linear_1_2370" x1="63.4396" y1="58.5701" x2="63.4396" y2="70.6874" gradientUnits="userSpaceOnUse">
<stop stop-color="#F59E0B"/>
<stop offset="1" stop-color="#E61D2A"/>
</linearGradient>
<linearGradient id="paint3_linear_1_2370" x1="99.0076" y1="85.1401" x2="99.0076" y2="110.206" gradientUnits="userSpaceOnUse">
<stop stop-color="#F59E0B"/>
<stop offset="1" stop-color="#E61D2A"/>
</linearGradient>
<linearGradient id="paint4_linear_1_2370" x1="99.0077" y1="79.1047" x2="99.0077" y2="91.222" gradientUnits="userSpaceOnUse">
<stop stop-color="#F59E0B"/>
<stop offset="1" stop-color="#E61D2A"/>
</linearGradient>
<linearGradient id="paint5_linear_1_2370" x1="30.3089" y1="44.1169" x2="30.3089" y2="86.9586" gradientUnits="userSpaceOnUse">
<stop stop-color="#F59E0B"/>
<stop offset="1" stop-color="#E61D2A"/>
</linearGradient>
<linearGradient id="paint6_linear_1_2370" x1="73.519" y1="43.6155" x2="73.519" y2="79.459" gradientUnits="userSpaceOnUse">
<stop stop-color="#F59E0B"/>
<stop offset="1" stop-color="#E61D2A"/>
</linearGradient>
<linearGradient id="paint7_linear_1_2370" x1="87.1099" y1="71.3457" x2="87.1099" y2="151.119" gradientUnits="userSpaceOnUse">
<stop stop-color="#F59E0B"/>
<stop offset="1" stop-color="#E61D2A"/>
</linearGradient>
<linearGradient id="paint8_linear_1_2370" x1="63.4397" y1="64.605" x2="63.4397" y2="102.038" gradientUnits="userSpaceOnUse">
<stop stop-color="#F59E0B"/>
<stop offset="1" stop-color="#E61D2A"/>
</linearGradient>
<clipPath id="clip0_1_2370">
<rect width="174" height="174" fill="white"/>
</clipPath>
</defs>
</svg>
