<svg width="11" height="75" viewBox="0 0 11 75" fill="none" xmlns="http://www.w3.org/2000/svg">
<path id="Vector 6" d="M5.33333 3C5.33333 4.47276 6.52724 5.66667 8 5.66667C9.47276 5.66667 10.6667 4.47276 10.6667 3C10.6667 1.52724 9.47276 0.333333 8 0.333333C6.52724 0.333333 5.33333 1.52724 5.33333 3ZM8 72L3 69.1133V74.8867L8 72ZM1.95715 69.0435L1.4572 69.0507L1.95715 69.0435ZM7.01095 2.5C6.73481 2.5 6.51095 2.72386 6.51095 3C6.51095 3.27614 6.73481 3.5 7.01095 3.5V2.5ZM5.03285 3.5C5.30899 3.5 5.53285 3.27614 5.53285 3C5.53285 2.72386 5.30899 2.5 5.03285 2.5V3.5ZM2.69217 2.77062C2.43748 2.87732 2.31751 3.17029 2.42421 3.42499C2.53092 3.67968 2.82389 3.79965 3.07858 3.69294L2.69217 2.77062ZM1.72299 5.06832C1.82599 4.81211 1.70179 4.52091 1.44558 4.41791C1.18937 4.3149 0.898165 4.4391 0.795162 4.69532L1.72299 5.06832ZM0.572693 8.01947C0.576695 8.29558 0.803773 8.51617 1.07989 8.51217C1.356 8.50817 1.57659 8.28109 1.57259 8.00498L0.572693 8.01947ZM1.62965 11.9425C1.62565 11.6664 1.39857 11.4458 1.12246 11.4498C0.846347 11.4538 0.625757 11.6809 0.629759 11.957L1.62965 11.9425ZM0.686824 15.8945C0.690826 16.1706 0.917904 16.3912 1.19402 16.3872C1.47013 16.3832 1.69072 16.1561 1.68672 15.88L0.686824 15.8945ZM1.74378 19.8175C1.73978 19.5414 1.5127 19.3208 1.23659 19.3248C0.960478 19.3288 0.739887 19.5559 0.743889 19.832L1.74378 19.8175ZM0.800954 23.7695C0.804956 24.0456 1.03203 24.2662 1.30815 24.2622C1.58426 24.2582 1.80485 24.0311 1.80085 23.755L0.800954 23.7695ZM1.85791 27.6925C1.85391 27.4164 1.62683 27.1958 1.35072 27.1998C1.07461 27.2038 0.854018 27.4309 0.85802 27.707L1.85791 27.6925ZM0.915085 31.6445C0.919086 31.9206 1.14616 32.1412 1.42228 32.1372C1.69839 32.1332 1.91898 31.9061 1.91498 31.63L0.915085 31.6445ZM1.97204 35.5675C1.96804 35.2914 1.74097 35.0708 1.46485 35.0748C1.18874 35.0788 0.968148 35.3059 0.97215 35.582L1.97204 35.5675ZM1.02922 39.5195C1.03322 39.7956 1.26029 40.0162 1.53641 40.0122C1.81252 40.0082 2.03311 39.7811 2.02911 39.505L1.02922 39.5195ZM2.08618 43.4425C2.08217 43.1664 1.8551 42.9458 1.57898 42.9498C1.30287 42.9538 1.08228 43.1809 1.08628 43.457L2.08618 43.4425ZM1.14335 47.3945C1.14735 47.6706 1.37443 47.8912 1.65054 47.8872C1.92665 47.8832 2.14724 47.6561 2.14324 47.38L1.14335 47.3945ZM2.20031 51.3175C2.1963 51.0414 1.96923 50.8208 1.69311 50.8248C1.417 50.8288 1.19641 51.0559 1.20041 51.332L2.20031 51.3175ZM1.25748 55.2695C1.26148 55.5456 1.48856 55.7662 1.76467 55.7622C2.04078 55.7582 2.26137 55.5311 2.25737 55.255L1.25748 55.2695ZM2.31444 59.1925C2.31043 58.9164 2.08336 58.6958 1.80724 58.6998C1.53113 58.7038 1.31054 58.9309 1.31454 59.207L2.31444 59.1925ZM1.37161 63.1445C1.37561 63.4206 1.60269 63.6412 1.8788 63.6372C2.15491 63.6332 2.3755 63.4061 2.3715 63.13L1.37161 63.1445ZM2.42857 67.0675C2.42456 66.7914 2.19749 66.5708 1.92137 66.5748C1.64526 66.5788 1.42467 66.8058 1.42867 67.082L2.42857 67.0675ZM1.73741 70.3749C1.84594 70.6289 2.13977 70.7467 2.39369 70.6382C2.64761 70.5296 2.76546 70.2358 2.65692 69.9819L1.73741 70.3749ZM4.00839 71.3139C3.75292 71.2091 3.46083 71.3312 3.35598 71.5866C3.25114 71.8421 3.37323 72.1342 3.6287 72.239L4.00839 71.3139ZM5.71763 72.5C5.99377 72.5 6.21763 72.2761 6.21763 72C6.21763 71.7239 5.99377 71.5 5.71763 71.5V72.5ZM7.23921 71.5C6.96307 71.5 6.73921 71.7239 6.73921 72C6.73921 72.2761 6.96307 72.5 7.23921 72.5V71.5ZM8 2.5H7.01095V3.5H8V2.5ZM5.03285 2.5H4.04379V3.5H5.03285V2.5ZM4.04379 2.5C3.56547 2.5 3.10856 2.59617 2.69217 2.77062L3.07858 3.69294C3.37476 3.56886 3.70048 3.5 4.04379 3.5V2.5ZM0.795162 4.69532C0.626766 5.11419 0.537229 5.57244 0.544161 6.05072L1.54406 6.03623C1.53908 5.69295 1.60321 5.36627 1.72299 5.06832L0.795162 4.69532ZM0.544161 6.05072L0.572693 8.01947L1.57259 8.00498L1.54406 6.03623L0.544161 6.05072ZM0.629759 11.957L0.686824 15.8945L1.68672 15.88L1.62965 11.9425L0.629759 11.957ZM0.743889 19.832L0.800954 23.7695L1.80085 23.755L1.74378 19.8175L0.743889 19.832ZM0.85802 27.707L0.915085 31.6445L1.91498 31.63L1.85791 27.6925L0.85802 27.707ZM0.97215 35.582L1.02922 39.5195L2.02911 39.505L1.97204 35.5675L0.97215 35.582ZM1.08628 43.457L1.14335 47.3945L2.14324 47.38L2.08618 43.4425L1.08628 43.457ZM1.20041 51.332L1.25748 55.2695L2.25737 55.255L2.20031 51.3175L1.20041 51.332ZM1.31454 59.207L1.37161 63.1445L2.3715 63.13L2.31444 59.1925L1.31454 59.207ZM1.42867 67.082L1.4572 69.0507L2.4571 69.0362L2.42857 67.0675L1.42867 67.082ZM1.4572 69.0507C1.464 69.5197 1.56307 69.9671 1.73741 70.3749L2.65692 69.9819C2.53288 69.6917 2.46198 69.3727 2.4571 69.0362L1.4572 69.0507ZM3.6287 72.239C4.03903 72.4074 4.48786 72.5 4.95684 72.5V71.5C4.62034 71.5 4.30034 71.4337 4.00839 71.3139L3.6287 72.239ZM4.95684 72.5H5.71763V71.5H4.95684V72.5Z" fill="url(#paint0_linear_1_1551)"/>
<defs>
<linearGradient id="paint0_linear_1_1551" x1="4.5" y1="10.9615" x2="4.5" y2="72" gradientUnits="userSpaceOnUse">
<stop stop-color="#8F5C06"/>
<stop offset="1" stop-color="#F59E0B"/>
</linearGradient>
</defs>
</svg>
