<svg width="21" height="22" viewBox="0 0 21 22" fill="none" xmlns="http://www.w3.org/2000/svg">
<path d="M1.75 15.5703H19.25V17.3203H1.75V15.5703ZM2.75625 12.0266L3.5 10.7316L4.24375 12.0266L5.38125 11.3703L4.6375 10.0753H6.125V8.76281H4.6375L5.38125 7.47656L4.24375 6.82031L3.5 8.10656L2.75625 6.82031L1.61875 7.47656L2.3625 8.76281H0.875V10.0753H2.3625L1.61875 11.3703L2.75625 12.0266ZM8.61875 11.3703L9.75625 12.0266L10.5 10.7316L11.2438 12.0266L12.3812 11.3703L11.6375 10.0753H13.125V8.76281H11.6375L12.3812 7.47656L11.2438 6.82031L10.5 8.10656L9.75625 6.82031L8.61875 7.47656L9.3625 8.76281H7.875V10.0753H9.3625L8.61875 11.3703ZM20.125 8.76281H18.6375L19.3813 7.47656L18.2437 6.82031L17.5 8.10656L16.7562 6.82031L15.6188 7.47656L16.3625 8.76281H14.875V10.0753H16.3625L15.6188 11.3703L16.7562 12.0266L17.5 10.7316L18.2437 12.0266L19.3813 11.3703L18.6375 10.0753H20.125V8.76281Z" fill="#F59E0B"/>
</svg>
