<svg width="10" height="10" viewBox="0 0 10 10" fill="none" xmlns="http://www.w3.org/2000/svg">
<g id="pepicons-pop:motorcycle" clip-path="url(#clip0_1_2456)">
<g id="Group">
<path id="Vector" d="M6.08053 5.74984C6.08053 5.86641 6.03422 5.97821 5.95179 6.06064C5.86936 6.14306 5.75756 6.18937 5.64099 6.18937C5.52442 6.18937 5.41262 6.14306 5.33019 6.06064C5.24777 5.97821 5.20146 5.86641 5.20146 5.74984C5.20146 5.63327 5.24777 5.52147 5.33019 5.43904C5.41262 5.35661 5.52442 5.3103 5.64099 5.3103C5.75756 5.3103 5.86936 5.35661 5.95179 5.43904C6.03422 5.52147 6.08053 5.63327 6.08053 5.74984ZM4.54216 5.74984C4.54216 5.86641 4.49585 5.97821 4.41342 6.06064C4.33099 6.14306 4.21919 6.18937 4.10262 6.18937C3.98605 6.18937 3.87425 6.14306 3.79182 6.06064C3.70939 5.97821 3.66309 5.86641 3.66309 5.74984C3.66309 5.63327 3.70939 5.52147 3.79182 5.43904C3.87425 5.35661 3.98605 5.3103 4.10262 5.3103C4.21919 5.3103 4.33099 5.35661 4.41342 5.43904C4.49585 5.52147 4.54216 5.63327 4.54216 5.74984Z" fill="#52C01B"/>
<path id="Vector_2" fill-rule="evenodd" clip-rule="evenodd" d="M4.87187 3.77181C5.27987 3.77181 5.67116 3.60973 5.95966 3.32123C6.24816 3.03273 6.41024 2.64144 6.41024 2.23344C6.41024 1.82544 6.24816 1.43415 5.95966 1.14565C5.67116 0.857146 5.27987 0.695068 4.87187 0.695068C4.46387 0.695068 4.07258 0.857146 3.78407 1.14565C3.49557 1.43415 3.3335 1.82544 3.3335 2.23344C3.3335 2.64144 3.49557 3.03273 3.78407 3.32123C4.07258 3.60973 4.46387 3.77181 4.87187 3.77181ZM4.87187 1.57414C5.04673 1.57414 5.21442 1.6436 5.33807 1.76724C5.46171 1.89089 5.53117 2.05858 5.53117 2.23344C5.53117 2.4083 5.46171 2.57599 5.33807 2.69964C5.21442 2.82328 5.04673 2.89274 4.87187 2.89274C4.69701 2.89274 4.52931 2.82328 4.40567 2.69964C4.28203 2.57599 4.21257 2.4083 4.21257 2.23344C4.21257 2.05858 4.28203 1.89089 4.40567 1.76724C4.52931 1.6436 4.69701 1.57414 4.87187 1.57414Z" fill="#52C01B"/>
<path id="Vector_3" d="M4.87175 6.40918C5.10489 6.40918 5.32848 6.5018 5.49334 6.66665C5.6582 6.83151 5.75082 7.05511 5.75082 7.28825V7.94755C5.75082 8.1807 5.6582 8.40429 5.49334 8.56915C5.32848 8.73401 5.10489 8.82662 4.87175 8.82662C4.6386 8.82662 4.41501 8.73401 4.25015 8.56915C4.08529 8.40429 3.99268 8.1807 3.99268 7.94755V7.28825C3.99268 7.05511 4.08529 6.83151 4.25015 6.66665C4.41501 6.5018 4.6386 6.40918 4.87175 6.40918Z" fill="#52C01B"/>
<path id="Vector_4" fill-rule="evenodd" clip-rule="evenodd" d="M7.06967 5.0905C7.06967 4.50764 6.83813 3.94865 6.42598 3.53651C6.01384 3.12436 5.45485 2.89282 4.87199 2.89282C4.28913 2.89282 3.73014 3.12436 3.318 3.53651C2.90586 3.94865 2.67432 4.50764 2.67432 5.0905V6.18933C2.67432 6.48076 2.79009 6.76026 2.99616 6.96633C3.20223 7.1724 3.48172 7.28817 3.77315 7.28817H5.97083C6.26226 7.28817 6.54175 7.1724 6.74782 6.96633C6.9539 6.76026 7.06967 6.48076 7.06967 6.18933V5.0905ZM3.55339 5.0905C3.55339 4.74078 3.69231 4.40539 3.9396 4.1581C4.18688 3.91082 4.52228 3.77189 4.87199 3.77189C5.22171 3.77189 5.5571 3.91082 5.80439 4.1581C6.05167 4.40539 6.1906 4.74078 6.1906 5.0905V6.18933C6.1906 6.24762 6.16744 6.30352 6.12623 6.34473C6.08501 6.38595 6.02911 6.4091 5.97083 6.4091H3.77315C3.71487 6.4091 3.65897 6.38595 3.61775 6.34473C3.57654 6.30352 3.55339 6.24762 3.55339 6.18933V5.0905Z" fill="#52C01B"/>
<path id="Vector_5" d="M7.28923 2.23356C7.17266 2.23356 7.06086 2.18725 6.97843 2.10483C6.896 2.0224 6.8497 1.9106 6.8497 1.79403C6.8497 1.67746 6.896 1.56566 6.97843 1.48323C7.06086 1.4008 7.17266 1.35449 7.28923 1.35449H8.1683C8.28487 1.35449 8.39667 1.4008 8.4791 1.48323C8.56153 1.56566 8.60784 1.67746 8.60784 1.79403C8.60784 1.9106 8.56153 2.0224 8.4791 2.10483C8.39667 2.18725 8.28487 2.23356 8.1683 2.23356H7.28923ZM1.57528 2.23356C1.45871 2.23356 1.34691 2.18725 1.26448 2.10483C1.18205 2.0224 1.13574 1.9106 1.13574 1.79403C1.13574 1.67746 1.18205 1.56566 1.26448 1.48323C1.34691 1.4008 1.45871 1.35449 1.57528 1.35449H2.45435C2.57092 1.35449 2.68272 1.4008 2.76514 1.48323C2.84757 1.56566 2.89388 1.67746 2.89388 1.79403C2.89388 1.9106 2.84757 2.0224 2.76514 2.10483C2.68272 2.18725 2.57092 2.23356 2.45435 2.23356H1.57528Z" fill="#52C01B"/>
<path id="Vector_6" d="M1.9751 2.03405L2.18432 1.39453L4.17277 1.77385L3.96311 2.41381L1.9751 2.03405ZM5.57049 1.77385L5.78015 2.41381L7.76817 2.03405L7.55895 1.39453L5.57049 1.77385Z" fill="#52C01B"/>
</g>
</g>
<defs>
<clipPath id="clip0_1_2456">
<rect width="8.7907" height="8.7907" fill="white" transform="translate(0.476562 0.255859)"/>
</clipPath>
</defs>
</svg>
