<svg width="20" height="20" viewBox="0 0 20 20" fill="none" xmlns="http://www.w3.org/2000/svg">
<path d="M11.0486 2.50291C6.80698 2.38624 3.33198 5.79458 3.33198 10.0029H1.84031C1.46531 10.0029 1.28198 10.4529 1.54864 10.7112L3.87364 13.0446C4.04031 13.2112 4.29864 13.2112 4.46531 13.0446L6.79031 10.7112C6.84789 10.6525 6.8868 10.578 6.90213 10.4972C6.91745 10.4164 6.90851 10.3328 6.87643 10.2571C6.84435 10.1813 6.79056 10.1168 6.72185 10.0715C6.65314 10.0263 6.57257 10.0024 6.49031 10.0029H4.99864C4.99864 6.75291 7.64864 4.12791 10.9153 4.16958C14.0153 4.21124 16.6236 6.81957 16.6653 9.91957C16.707 13.1779 14.082 15.8362 10.832 15.8362C9.49031 15.8362 8.24864 15.3779 7.26531 14.6029C7.1057 14.4772 6.90543 14.4145 6.70261 14.4268C6.4998 14.4391 6.30857 14.5255 6.16531 14.6696C5.81531 15.0196 5.84031 15.6112 6.23198 15.9112C7.54131 16.9465 9.16281 17.5076 10.832 17.5029C15.0403 17.5029 18.4486 14.0279 18.332 9.78624C18.2236 5.87791 14.957 2.61124 11.0486 2.50291ZM10.6236 6.66957C10.282 6.66957 9.99864 6.95291 9.99864 7.29457V10.3612C9.99864 10.6529 10.157 10.9279 10.407 11.0779L13.007 12.6196C13.307 12.7946 13.6903 12.6946 13.8653 12.4029C14.0403 12.1029 13.9403 11.7196 13.6486 11.5446L11.2486 10.1196V7.28624C11.2486 6.95291 10.9653 6.66957 10.6236 6.66957Z" fill="black"/>
</svg>
