<svg width="24" height="24" viewBox="0 0 24 24" fill="none" xmlns="http://www.w3.org/2000/svg">
<path d="M17.33 6.34202L12.224 16.552C12.2034 16.5938 12.1714 16.6289 12.1319 16.6534C12.0923 16.678 12.0466 16.691 12 16.691C11.9535 16.691 11.9078 16.678 11.8682 16.6534C11.8287 16.6289 11.7967 16.5938 11.776 16.552L6.67104 6.34302C6.62423 6.24923 6.60808 6.14311 6.62486 6.03964C6.64165 5.93618 6.69053 5.8406 6.76459 5.76643C6.83865 5.69225 6.93416 5.64323 7.0376 5.62629C7.14104 5.60935 7.24719 5.62535 7.34104 5.67202L11.553 7.77702C11.6918 7.84638 11.8449 7.88248 12 7.88248C12.1552 7.88248 12.3082 7.84638 12.447 7.77702L16.658 5.67202C16.7518 5.62521 16.858 5.60905 16.9614 5.62584C17.0649 5.64263 17.1605 5.6915 17.2346 5.76557C17.3088 5.83963 17.3578 5.93513 17.3748 6.03857C17.3917 6.14201 17.3767 6.24816 17.33 6.34202Z" fill="white" fill-opacity="0.25"/>
<path d="M14.5 17.5H18.5M5.5 17.5H9.5" stroke="white" stroke-linecap="round"/>
</svg>
