<svg width="20" height="20" viewBox="0 0 20 20" fill="none" xmlns="http://www.w3.org/2000/svg">
<path d="M10 1.66925C11.9891 1.66925 13.8968 2.45943 15.3033 3.86595C16.7098 5.27247 17.5 7.18013 17.5 9.16925C17.5 11.7309 16.1033 13.8276 14.6317 15.3318C13.8964 16.0751 13.0941 16.7491 12.235 17.3451L11.88 17.5868L11.7133 17.6976L11.3992 17.8976L11.1192 18.0684L10.7725 18.2701C10.5372 18.4044 10.2709 18.475 10 18.475C9.72906 18.475 9.4628 18.4044 9.2275 18.2701L8.88083 18.0684L8.4475 17.8018L8.2875 17.6976L7.94583 17.4701C7.01903 16.843 6.15575 16.1268 5.36833 15.3318C3.89667 13.8268 2.5 11.7309 2.5 9.16925C2.5 7.18013 3.29018 5.27247 4.6967 3.86595C6.10322 2.45943 8.01088 1.66925 10 1.66925ZM10 6.66925C9.6717 6.66925 9.34661 6.73391 9.04329 6.85955C8.73998 6.98519 8.46438 7.16934 8.23223 7.40148C8.00009 7.63363 7.81594 7.90923 7.6903 8.21254C7.56466 8.51586 7.5 8.84095 7.5 9.16925C7.5 9.49756 7.56466 9.82265 7.6903 10.126C7.81594 10.4293 8.00009 10.7049 8.23223 10.937C8.46438 11.1692 8.73998 11.3533 9.04329 11.4789C9.34661 11.6046 9.6717 11.6693 10 11.6693C10.663 11.6693 11.2989 11.4059 11.7678 10.937C12.2366 10.4682 12.5 9.83229 12.5 9.16925C12.5 8.50621 12.2366 7.87032 11.7678 7.40148C11.2989 6.93264 10.663 6.66925 10 6.66925Z" fill="white"/>
</svg>
