<svg width="18" height="16" viewBox="0 0 18 16" fill="none" xmlns="http://www.w3.org/2000/svg">
<path d="M16.7082 7.99999H6.41234M2.77817 7.99999H1.2915M2.77817 7.99999C2.77817 7.51818 2.96957 7.0561 3.31026 6.71541C3.65095 6.37472 4.11303 6.18332 4.59484 6.18332C5.07665 6.18332 5.53872 6.37472 5.87942 6.71541C6.22011 7.0561 6.4115 7.51818 6.4115 7.99999C6.4115 8.4818 6.22011 8.94388 5.87942 9.28457C5.53872 9.62526 5.07665 9.81666 4.59484 9.81666C4.11303 9.81666 3.65095 9.62526 3.31026 9.28457C2.96957 8.94388 2.77817 8.4818 2.77817 7.99999ZM16.7082 13.5058H11.9182M11.9182 13.5058C11.9182 13.9877 11.7263 14.4503 11.3855 14.7911C11.0448 15.1319 10.5826 15.3233 10.1007 15.3233C9.61886 15.3233 9.15679 15.1311 8.81609 14.7904C8.4754 14.4497 8.284 13.9876 8.284 13.5058M11.9182 13.5058C11.9182 13.0239 11.7263 12.5621 11.3855 12.2214C11.0448 11.8806 10.5826 11.6892 10.1007 11.6892C9.61886 11.6892 9.15679 11.8806 8.81609 12.2212C8.4754 12.5619 8.284 13.024 8.284 13.5058M8.284 13.5058H1.2915M16.7082 2.49416H14.1207M10.4865 2.49416H1.2915M10.4865 2.49416C10.4865 2.01235 10.6779 1.55027 11.0186 1.20958C11.3593 0.868888 11.8214 0.67749 12.3032 0.67749C12.5417 0.67749 12.778 0.72448 12.9984 0.815776C13.2188 0.907072 13.4191 1.04089 13.5877 1.20958C13.7564 1.37827 13.8903 1.57854 13.9816 1.79895C14.0728 2.01936 14.1198 2.25559 14.1198 2.49416C14.1198 2.73272 14.0728 2.96896 13.9816 3.18937C13.8903 3.40977 13.7564 3.61004 13.5877 3.77873C13.4191 3.94743 13.2188 4.08124 12.9984 4.17254C12.778 4.26383 12.5417 4.31082 12.3032 4.31082C11.8214 4.31082 11.3593 4.11943 11.0186 3.77873C10.6779 3.43804 10.4865 2.97597 10.4865 2.49416Z" stroke="black" stroke-width="1.25" stroke-miterlimit="10" stroke-linecap="round"/>
</svg>
