<svg width="125" height="39" viewBox="0 0 125 39" fill="none" xmlns="http://www.w3.org/2000/svg">
<g id="Group 1000002526">
<g id="Group">
<path id="Vector" d="M4.34632 13.9266C3.95579 13.8627 3.67716 13.8844 3.40082 13.8809C3.19071 13.8775 2.9806 13.8912 2.77049 13.8832C2.3377 13.8672 2.14586 13.6891 2.07164 13.254C2.01797 12.9377 2.05223 12.6237 2.12188 12.3154C2.17669 12.0699 2.35027 11.9249 2.60149 11.8975C2.75793 11.8803 2.91665 11.8838 3.07309 11.8849C4.08939 11.8849 5.10569 11.8838 6.12084 11.8917C6.36293 11.894 6.57532 11.8484 6.72377 11.644C7.02409 11.2294 7.45116 11.0547 7.9399 11.0056C8.166 10.9828 8.39438 10.9737 8.62162 10.9725C9.60251 10.9702 10.5834 10.9737 11.5655 10.9748C11.6705 10.9748 11.7767 10.9782 11.8806 10.9691C12.101 10.9497 12.1741 10.8092 12.0725 10.5991C12.0268 10.5043 11.9697 10.4164 11.9172 10.3251C11.1475 8.99016 10.3687 7.66098 9.61507 6.31696C9.41866 5.96754 9.16516 5.76884 8.78263 5.67178C8.32586 5.55645 7.88166 5.39201 7.43061 5.2527C7.28102 5.20588 7.128 5.1682 6.97613 5.12823C6.58902 5.02432 6.24759 5.1328 5.94499 5.3726C5.8091 5.48108 5.68577 5.60898 5.57273 5.74144C5.06343 6.33409 4.41255 6.6287 3.64062 6.66067C2.24407 6.71891 1.12957 6.19706 0.437571 4.9638C-0.595854 3.12305 0.256009 0.854078 2.41535 0.139244C4.02202 -0.392884 6.15167 0.647393 6.53307 2.5658C6.57418 2.77134 6.59473 2.98145 6.62442 3.18928C6.68152 3.59237 6.80142 3.73168 7.20337 3.82532C7.49227 3.89269 7.78688 3.93609 8.07693 3.99889C9.33531 4.27295 10.3094 4.96608 11.047 6.00979C11.361 6.45513 11.6123 6.93587 11.8235 7.43717C12.1375 8.18283 12.5738 8.85998 13.0145 9.53485C13.0328 9.56226 13.0671 9.58053 13.115 9.62164C15.4776 7.16654 18.3392 5.81566 21.7798 5.79282C25.201 5.76999 28.0751 7.0592 30.4926 9.50402C30.5702 9.40011 30.6353 9.32474 30.689 9.24138C31.1115 8.59621 31.5077 7.93961 31.7943 7.21678C32.0216 6.64583 32.3539 6.1274 32.7512 5.65465C33.5494 4.70459 34.5726 4.14505 35.7841 3.91553C35.9737 3.88013 36.1621 3.84017 36.354 3.82075C36.6668 3.78878 36.8119 3.59351 36.8747 3.31375C36.8975 3.21212 36.9021 3.10592 36.9112 3.00086C37.0848 1.02194 38.7782 0.070733 40.0948 0.00336056C41.5097 -0.0685795 43.0193 1.02194 43.4144 2.56009C43.8312 4.18045 42.9222 6.19706 40.7811 6.60358C39.5844 6.83082 38.5282 6.4734 37.7026 5.53932C37.6557 5.48679 37.6089 5.43427 37.5701 5.37603C37.3383 5.03003 37.0094 4.97751 36.644 5.08484C36.1244 5.23672 35.6083 5.40229 35.0944 5.57129C34.5418 5.75286 34.1135 6.10571 33.7904 6.58416C33.6042 6.85936 33.4284 7.14256 33.2605 7.43032C32.6976 8.3998 32.1415 9.37156 31.5831 10.3433C31.5397 10.4187 31.4997 10.4963 31.4483 10.5923C31.5214 10.7076 31.5945 10.8218 31.6779 10.952C31.8377 10.9599 31.9919 10.9748 32.1472 10.9748C33.0401 10.9759 33.9343 10.9668 34.8272 10.9737C35.123 10.9759 35.4199 11.0091 35.7156 11.0399C36.153 11.0856 36.5207 11.2797 36.7947 11.6234C36.9637 11.8358 37.1579 11.902 37.4308 11.8963C38.4985 11.8758 39.5673 11.8838 40.6361 11.8815C40.6886 11.8815 40.7412 11.8815 40.7937 11.886C41.2025 11.9157 41.3966 12.0927 41.4286 12.5061C41.4492 12.7664 41.4491 13.0325 41.4263 13.2929C41.3932 13.6674 41.1876 13.8581 40.8131 13.8821C40.5687 13.8969 40.3232 13.8867 40.0777 13.8889C39.8196 13.8912 39.5684 13.9266 39.3035 14.0614C39.517 14.2829 39.7671 14.4085 39.9909 14.5684C40.1188 14.6597 40.2593 14.7374 40.3746 14.8424C40.5904 15.0388 40.5973 15.3323 40.4066 15.547C40.2387 15.7354 39.8859 15.7548 39.694 15.5755C39.605 15.4922 39.533 15.3917 39.4599 15.2935C39.2567 15.0206 38.9975 14.8127 38.6983 14.6609C38.2278 14.4211 37.7231 14.2806 37.2058 14.1813C37.0208 14.1459 36.8655 14.179 36.7159 14.2966C36.1952 14.7065 35.582 14.8242 34.9391 14.8196C34.6765 14.8173 34.415 14.7853 34.1524 14.7751C33.9811 14.7682 33.8086 14.7739 33.602 14.7739C33.6214 14.9144 33.6259 15.032 33.6545 15.1439C33.9571 16.3258 34.037 17.5259 33.9788 18.7398C33.908 20.1877 33.5746 21.5774 33.0687 22.9306C32.532 24.3648 31.8297 25.7168 30.9413 26.9603C29.8828 28.4425 28.8048 29.9122 27.688 31.3498C25.8815 33.6725 24.0362 35.9654 22.2057 38.2698C22.1098 38.3908 22.0025 38.5016 21.8849 38.6341C21.6885 38.529 21.5903 38.3589 21.4749 38.2138C20.1286 36.5318 18.78 34.8509 17.4451 33.1609C15.9686 31.2916 14.507 29.4097 13.1253 27.4685C12.0747 25.992 11.1943 24.4242 10.5754 22.7159C10.065 21.3056 9.77037 19.852 9.72013 18.3538C9.68473 17.2987 9.80577 16.2561 10.0501 15.2284C10.0707 15.1439 10.0901 15.0583 10.1038 14.9726C10.1084 14.9406 10.0947 14.9064 10.0878 14.871C10.0193 14.7659 9.90626 14.7865 9.80577 14.7842C9.38555 14.7762 8.96533 14.7751 8.54511 14.7694C8.3704 14.7671 8.19454 14.7625 8.01983 14.7579C7.62245 14.7477 7.25704 14.6392 6.959 14.3685C6.74318 14.1721 6.50109 14.1299 6.22818 14.1915C5.73259 14.3035 5.24728 14.4473 4.79166 14.6791C4.4411 14.8573 4.15562 15.1108 3.94665 15.4465C3.82218 15.6463 3.64519 15.7263 3.41224 15.7C3.21926 15.6783 3.09136 15.579 3.01371 15.4031C2.93606 15.2238 2.95662 15.0548 3.08108 14.9121C3.15988 14.8219 3.26265 14.7499 3.362 14.6803C3.60636 14.5101 3.85644 14.3491 4.10081 14.179C4.1659 14.1276 4.21614 14.0591 4.34632 13.9266ZM21.8792 32.6722C22.039 32.4826 22.1658 32.341 22.2834 32.1903C23.8535 30.1942 25.4305 28.2039 26.9869 26.1976C27.5122 25.5204 28.0078 24.817 28.4702 24.0953C29.4934 22.4955 30.1694 20.7701 30.3064 18.8505C30.3681 17.9827 30.287 17.1377 30.0872 16.3006C29.6658 14.5421 28.7386 13.0725 27.4014 11.8792C25.3334 10.0316 22.9114 9.37841 20.1868 9.90826C18.3301 10.2702 16.8057 11.2169 15.5735 12.6374C13.7785 14.7054 13.0808 17.0977 13.5227 19.804C13.6814 20.7758 14.0011 21.7007 14.4214 22.5937C14.8701 23.5495 15.4342 24.4333 16.0566 25.2817C17.8596 27.7403 19.7723 30.112 21.6827 32.4872C21.7239 32.5397 21.7809 32.5808 21.8792 32.6722Z" fill="black"/>
<path id="Vector_2" d="M21.8793 32.6723C21.7799 32.5809 21.7228 32.5398 21.6817 32.4884C19.7724 30.1133 17.8586 27.7415 16.0555 25.283C15.4332 24.4346 14.8691 23.5496 14.4203 22.5949C14.0013 21.7031 13.6804 20.777 13.5217 19.8053C13.0797 17.099 13.7774 14.7067 15.5725 12.6387C16.8058 11.2181 18.3291 10.2715 20.1858 9.90951C22.9104 9.37853 25.3312 10.0328 27.4004 11.8804C28.7364 13.0737 29.6648 14.5434 30.0861 16.3019C30.286 17.1378 30.3682 17.9839 30.3054 18.8518C30.1684 20.7713 29.4924 22.4967 28.4692 24.0966C28.0079 24.8182 27.5111 25.5217 26.9859 26.1988C25.4306 28.2063 23.8525 30.1955 22.2824 32.1915C22.1659 32.34 22.0391 32.4827 21.8793 32.6723ZM17.9465 18.8769C17.8666 20.5818 19.2723 22.6692 21.7388 22.692C23.9301 22.7126 25.5893 20.9438 25.587 18.8666C25.5848 17.0008 24.1985 15.1212 21.7285 15.0344C19.1752 15.152 17.8666 17.2131 17.9465 18.8769Z" fill="#FAB417"/>
<path id="Vector_3" d="M17.9466 18.8765C17.8666 17.2138 19.1753 15.1516 21.7286 15.0339C24.1985 15.1207 25.5836 17.0003 25.5871 18.8662C25.5905 20.9444 23.9302 22.7121 21.7388 22.6916C19.2723 22.6687 17.8655 20.5813 17.9466 18.8765Z" fill="black"/>
</g>
<g id="Group_2">
<path id="Vector_4" d="M47.9492 13.7283H55.5006V15.7073H50.4018V18.8436H54.3084V20.7886H50.4018V25.9574H47.9482V13.7283H47.9492Z" fill="black"/>
<path id="Vector_5" d="M59.6853 25.9574H57.2317V16.2509H59.6853V17.7573C60.2989 16.7585 61.3142 16.1108 62.664 16.1108V18.686H62.0154C60.5615 18.686 59.6853 19.2462 59.6853 21.1211V25.9574Z" fill="black"/>
<path id="Vector_6" d="M68.5475 26.1148C65.7273 26.1148 63.6772 24.1523 63.6772 21.1036C63.6772 18.0373 65.6747 16.0933 68.5475 16.0933C71.3502 16.0933 73.3302 18.0032 73.3302 20.8945C73.3302 21.2096 73.3127 21.5246 73.2602 21.8397H66.1649C66.2874 23.2771 67.2687 24.0823 68.495 24.0823C69.5463 24.0823 70.1239 23.5572 70.44 22.9085H73.0852C72.56 24.696 70.9476 26.1148 68.5475 26.1148ZM66.1834 20.1923H70.7901C70.7551 18.9135 69.7398 18.1073 68.4775 18.1073C67.3047 18.1083 66.3759 18.861 66.1834 20.1923Z" fill="black"/>
<path id="Vector_7" d="M79.3539 26.1148C76.5337 26.1148 74.4836 24.1523 74.4836 21.1036C74.4836 18.0373 76.4811 16.0933 79.3539 16.0933C82.1566 16.0933 84.1366 18.0032 84.1366 20.8945C84.1366 21.2096 84.1191 21.5246 84.0666 21.8397H76.9713C77.0938 23.2771 78.0751 24.0823 79.3014 24.0823C80.3517 24.0823 80.9303 23.5572 81.2464 22.9085H83.8916C83.3664 24.696 81.754 26.1148 79.3539 26.1148ZM76.9888 20.1923H81.5965C81.5615 18.9135 80.5462 18.1073 79.2839 18.1073C78.1101 18.1083 77.1823 18.861 76.9888 20.1923Z" fill="black"/>
<path id="Vector_8" d="M89.7404 16.0932C91.0193 16.0932 92.2446 16.6894 92.9117 17.5996V12.9929H95.3994V25.9573H92.9117V24.5199C92.3341 25.4136 91.2468 26.1148 89.7229 26.1148C87.2528 26.1148 85.2903 24.0998 85.2903 21.0685C85.2903 18.0373 87.2528 16.0932 89.7404 16.0932ZM90.3531 18.2483C89.0393 18.2483 87.7954 19.2295 87.7954 21.0685C87.7954 22.9075 89.0383 23.9597 90.3531 23.9597C91.7029 23.9597 92.9283 22.9435 92.9283 21.1035C92.9283 19.2636 91.7029 18.2483 90.3531 18.2483Z" fill="black"/>
<path id="Vector_9" d="M102.105 26.1148C99.3017 26.1148 97.1826 24.1523 97.1826 21.1036C97.1826 18.0373 99.3727 16.0933 102.175 16.0933C104.979 16.0933 107.169 18.0383 107.169 21.1036C107.168 24.1523 104.926 26.1148 102.105 26.1148ZM102.105 23.9763C103.402 23.9763 104.646 23.031 104.646 21.1036C104.646 19.1586 103.436 18.2308 102.139 18.2308C100.843 18.2308 99.6693 19.1595 99.6693 21.1036C99.6703 23.031 100.792 23.9763 102.105 23.9763Z" fill="black"/>
<path id="Vector_10" d="M122.547 20.596C122.547 19.0536 121.689 18.2484 120.392 18.2484C119.078 18.2484 118.219 19.0536 118.219 20.596V25.9574H115.767V20.596C115.767 19.0536 114.908 18.2484 113.612 18.2484C112.28 18.2484 111.422 19.0536 111.422 20.596V25.9574H108.969V16.2509H111.423V17.4247C112.036 16.6185 113.069 16.1108 114.278 16.1108C115.784 16.1108 117.029 16.7585 117.694 17.9683C118.325 16.8636 119.604 16.1108 121.023 16.1108C123.353 16.1108 125 17.5832 125 20.2634V25.9574H122.548V20.596H122.547Z" fill="black"/>
</g>
</g>
</svg>
