<svg width="17" height="17" viewBox="0 0 17 17" fill="none" xmlns="http://www.w3.org/2000/svg">
<path d="M14.7963 1.41868L14.8714 1.41443L14.9634 1.4201L15.0272 1.43143L15.1143 1.45622L15.1901 1.4888L15.2609 1.52918L15.3247 1.57664L15.3828 1.62976L15.4196 1.67155L15.4777 1.75372L15.5145 1.82172C15.5476 1.89255 15.5688 1.96716 15.5783 2.04555L15.5818 2.12064C15.5818 2.174 15.5761 2.22594 15.5648 2.27647L15.54 2.3636L10.9132 15.1681C10.8255 15.3591 10.6848 15.5208 10.5079 15.6342C10.331 15.7476 10.1253 15.8078 9.91514 15.8078C9.72594 15.8082 9.53984 15.7596 9.3749 15.6669C9.20997 15.5742 9.07179 15.4405 8.97377 15.2786L8.92773 15.1887L6.55339 10.4414L1.82881 8.07843C1.65399 7.99848 1.50323 7.87403 1.39161 7.71753C1.27998 7.56103 1.2114 7.37796 1.19273 7.18664L1.18848 7.0811C1.18848 6.68443 1.40168 6.32176 1.78418 6.11068L1.88335 6.0611L14.6454 1.45268L14.7205 1.43143L14.7963 1.41868Z" fill="black"/>
</svg>
