<svg width="29" height="23" viewBox="0 0 29 23" fill="none" xmlns="http://www.w3.org/2000/svg">
<g clip-path="url(#clip0_1_3021)">
<path d="M5.27218 22.4308V20.9388C5.27218 20.3667 4.92395 19.9938 4.32707 19.9938C4.02869 19.9938 3.70538 20.0932 3.48154 20.4165C3.30754 20.143 3.05889 19.9938 2.68585 19.9938C2.43709 19.9938 2.18855 20.0683 1.98951 20.3419V20.0435H1.46729V22.4308H1.98951V21.1128C1.98951 20.6901 2.21336 20.4911 2.56158 20.4911C2.90958 20.4911 3.08381 20.7149 3.08381 21.1128V22.4308H3.60604V21.1128C3.60604 20.6901 3.85457 20.4911 4.17788 20.4911C4.52611 20.4911 4.70011 20.7149 4.70011 21.1128V22.4308H5.27218ZM13.006 20.0435H12.1606V19.3224H11.6384V20.0435H11.1659V20.5159H11.6382V21.6102C11.6382 22.1573 11.8621 22.4805 12.459 22.4805C12.6828 22.4805 12.9313 22.406 13.1056 22.3065L12.9563 21.8588C12.8071 21.9583 12.6331 21.9832 12.5087 21.9832C12.26 21.9832 12.1606 21.834 12.1606 21.5853V20.5159H13.006V20.0435ZM17.4326 19.9937C17.1342 19.9937 16.9353 20.143 16.8109 20.3419V20.0435H16.2887V22.4308H16.8109V21.088C16.8109 20.6901 16.9849 20.4663 17.3082 20.4663C17.4077 20.4663 17.532 20.4912 17.6315 20.516L17.7807 20.0187C17.6812 19.9938 17.532 19.9938 17.4326 19.9938M10.7431 20.2425C10.4943 20.0684 10.1462 19.9939 9.77318 19.9939C9.17641 19.9939 8.77857 20.2923 8.77857 20.7648C8.77857 21.1627 9.07695 21.3865 9.59918 21.4611L9.84783 21.486C10.1214 21.5357 10.2706 21.6103 10.2706 21.7347C10.2706 21.9087 10.0717 22.0331 9.72345 22.0331C9.37522 22.0331 9.10176 21.9087 8.92765 21.7844L8.679 22.1823C8.95257 22.3812 9.32561 22.4806 9.69853 22.4806C10.3949 22.4806 10.7928 22.1575 10.7928 21.7098C10.7928 21.287 10.4695 21.0632 9.9721 20.9886L9.72345 20.9637C9.49961 20.9388 9.3256 20.8892 9.3256 20.74C9.3256 20.5659 9.49961 20.4664 9.77318 20.4664C10.0717 20.4664 10.3701 20.5907 10.5192 20.6653L10.7431 20.2425ZM24.6195 19.9939C24.321 19.9939 24.1221 20.1431 23.9977 20.342V20.0436H23.4755V22.4309H23.9977V21.0881C23.9977 20.6902 24.1718 20.4664 24.495 20.4664C24.5946 20.4664 24.7189 20.4913 24.8184 20.5161L24.9676 20.0188C24.8681 19.9939 24.7189 19.9939 24.6195 19.9939ZM17.9548 21.2373C17.9548 21.9584 18.4521 22.4806 19.2231 22.4806C19.5712 22.4806 19.8199 22.4061 20.0685 22.2072L19.8199 21.7844C19.6209 21.9336 19.422 22.0081 19.1982 22.0081C18.7754 22.0081 18.477 21.7098 18.477 21.2373C18.477 20.7897 18.7754 20.4912 19.1982 20.4664C19.422 20.4664 19.6209 20.5409 19.8199 20.6902L20.0685 20.2675C19.8199 20.0684 19.5712 19.9939 19.2231 19.9939C18.4521 19.9939 17.9548 20.5161 17.9548 21.2373ZM22.7792 21.2373V20.0436H22.257V20.342C22.0829 20.1183 21.8342 19.9939 21.5109 19.9939C20.8395 19.9939 20.3173 20.5161 20.3173 21.2373C20.3173 21.9584 20.8395 22.4806 21.5109 22.4806C21.859 22.4806 22.1078 22.3564 22.257 22.1325V22.4309H22.7792V21.2373ZM20.8643 21.2373C20.8643 20.8145 21.1379 20.4664 21.5855 20.4664C22.0082 20.4664 22.3067 20.7897 22.3067 21.2373C22.3067 21.66 22.0082 22.0081 21.5855 22.0081C21.1379 21.9832 20.8643 21.66 20.8643 21.2373ZM14.6225 19.9939C13.9262 19.9939 13.4288 20.4912 13.4288 21.2373C13.4288 21.9833 13.9261 22.4806 14.6473 22.4806C14.9954 22.4806 15.3437 22.3812 15.6172 22.1575L15.3685 21.7844C15.1696 21.9336 14.9209 22.0331 14.6723 22.0331C14.349 22.0331 14.0256 21.8839 13.951 21.461H15.7167V21.2622C15.7416 20.4912 15.2941 19.9939 14.6225 19.9939ZM14.6224 20.4415C14.9456 20.4415 15.1696 20.6405 15.2192 21.0135H13.9758C14.0255 20.6902 14.2494 20.4415 14.6224 20.4415ZM27.5786 21.2373V19.0986H27.0564V20.342C26.8823 20.1183 26.6336 19.9939 26.3103 19.9939C25.6389 19.9939 25.1167 20.5161 25.1167 21.2373C25.1167 21.9584 25.6389 22.4806 26.3103 22.4806C26.6585 22.4806 26.9072 22.3564 27.0564 22.1325V22.4309H27.5786V21.2373ZM25.6638 21.2373C25.6638 20.8145 25.9373 20.4664 26.385 20.4664C26.8077 20.4664 27.1061 20.7897 27.1061 21.2373C27.1061 21.66 26.8077 22.0081 26.385 22.0081C25.9373 21.9832 25.6638 21.66 25.6638 21.2373ZM8.20639 21.2373V20.0436H7.68416V20.342C7.51005 20.1183 7.26139 19.9939 6.93809 19.9939C6.26667 19.9939 5.74445 20.5161 5.74445 21.2373C5.74445 21.9584 6.26667 22.4806 6.93809 22.4806C7.28632 22.4806 7.53497 22.3564 7.68416 22.1325V22.4309H8.20639V21.2373ZM6.26667 21.2373C6.26667 20.8145 6.54025 20.4664 6.98782 20.4664C7.41059 20.4664 7.70908 20.7897 7.70908 21.2373C7.70908 21.66 7.41059 22.0081 6.98782 22.0081C6.54025 21.9832 6.26667 21.66 6.26667 21.2373Z" fill="black"/>
<path d="M10.5688 1.91504H18.4022V15.9903H10.5688V1.91504Z" fill="#FF5F00"/>
<path d="M11.0663 8.9525C11.0663 6.09272 12.4092 3.55612 14.4732 1.91479C12.9563 0.721148 11.0415 0 8.95262 0C4.0037 0 0 4.0037 0 8.9525C0 13.9013 4.0037 17.905 8.9525 17.905C11.0414 17.905 12.9562 17.1839 14.4732 15.9901C12.4092 14.3737 11.0663 11.8123 11.0663 8.9525Z" fill="#EB001B"/>
<path d="M28.9712 8.9525C28.9712 13.9012 24.9675 17.905 20.0187 17.905C17.9298 17.905 16.015 17.1839 14.498 15.9901C16.587 14.3489 17.905 11.8123 17.905 8.9525C17.905 6.09272 16.562 3.55612 14.498 1.91479C16.0149 0.721148 17.9298 0 20.0187 0C24.9675 0 28.9712 4.02862 28.9712 8.9525Z" fill="#F79E1B"/>
</g>
<defs>
<clipPath id="clip0_1_3021">
<rect width="29" height="22.543" fill="white"/>
</clipPath>
</defs>
</svg>
