<svg width="24" height="32" viewBox="0 0 24 32" fill="none" xmlns="http://www.w3.org/2000/svg">
<path d="M14.6355 15.13C14.6352 15.6199 14.5384 16.1049 14.3507 16.5573C14.1629 17.0098 13.8879 17.4208 13.5412 17.7669C13.1946 18.1131 12.7832 18.3875 12.3305 18.5747C11.8778 18.7618 11.3926 18.8579 10.9028 18.8575C10.4129 18.8579 9.92777 18.7618 9.47505 18.5747C9.02234 18.3875 8.61092 18.1131 8.26429 17.7669C7.91767 17.4208 7.64262 17.0098 7.45486 16.5573C7.2671 16.1049 7.17031 15.6199 7.17002 15.13C7.17031 14.6401 7.2671 14.1551 7.45486 13.7027C7.64262 13.2502 7.91767 12.8392 8.26429 12.4931C8.61092 12.1469 9.02234 11.8725 9.47505 11.6853C9.92777 11.4982 10.4129 11.4021 10.9028 11.4025C11.3926 11.4021 11.8778 11.4982 12.3305 11.6853C12.7832 11.8725 13.1946 12.1469 13.5412 12.4931C13.8879 12.8392 14.1629 13.2502 14.3507 13.7027C14.5384 14.1551 14.6352 14.6401 14.6355 15.13ZM17.3648 1.375L14.1548 6.31975C18.6398 10.0548 21.5918 15.3903 22.8975 21.0347C23.205 15.922 22.7138 10.5962 20.3228 5.98225C19.5 4.3495 18.495 2.812 17.3648 1.375ZM9.31502 6.05125L1.02002 18.6318C7.32752 19.5933 13.3268 22.4493 17.9925 26.8015C19.2975 27.9993 20.5275 29.2765 21.675 30.625C22.2255 23.8645 20.487 16.7395 16.005 11.5225C14.1353 9.31 11.8448 7.462 9.31502 6.05125Z" stroke="#F59E0B" stroke-width="1.5" stroke-linecap="round" stroke-linejoin="round"/>
</svg>
