<svg width="20" height="19" viewBox="0 0 20 19" fill="none" xmlns="http://www.w3.org/2000/svg">
<path d="M12.4256 11.9704C12.4256 12.219 12.3269 12.4574 12.1511 12.6331C11.9754 12.8089 11.737 12.9076 11.4884 12.9076C11.2399 12.9076 11.0015 12.8089 10.8257 12.6331C10.65 12.4574 10.5512 12.219 10.5512 11.9704C10.5512 11.7218 10.65 11.4835 10.8257 11.3077C11.0015 11.1319 11.2399 11.0332 11.4884 11.0332C11.737 11.0332 11.9754 11.1319 12.1511 11.3077C12.3269 11.4835 12.4256 11.7218 12.4256 11.9704ZM9.14541 11.9704C9.14541 12.219 9.04667 12.4574 8.87091 12.6331C8.69515 12.8089 8.45677 12.9076 8.2082 12.9076C7.95964 12.9076 7.72126 12.8089 7.5455 12.6331C7.36974 12.4574 7.271 12.219 7.271 11.9704C7.271 11.7218 7.36974 11.4835 7.5455 11.3077C7.72126 11.1319 7.95964 11.0332 8.2082 11.0332C8.45677 11.0332 8.69515 11.1319 8.87091 11.3077C9.04667 11.4835 9.14541 11.7218 9.14541 11.9704Z" fill="#FBC976"/>
<path fill-rule="evenodd" clip-rule="evenodd" d="M9.84858 7.75283C10.7186 7.75283 11.5529 7.40724 12.1681 6.79208C12.7832 6.17692 13.1288 5.34258 13.1288 4.47261C13.1288 3.60264 12.7832 2.7683 12.1681 2.15314C11.5529 1.53798 10.7186 1.19238 9.84858 1.19238C8.97861 1.19238 8.14428 1.53798 7.52912 2.15314C6.91395 2.7683 6.56836 3.60264 6.56836 4.47261C6.56836 5.34258 6.91395 6.17692 7.52912 6.79208C8.14428 7.40724 8.97861 7.75283 9.84858 7.75283ZM9.84858 3.0668C10.2214 3.0668 10.579 3.21491 10.8426 3.47855C11.1063 3.74219 11.2544 4.09976 11.2544 4.47261C11.2544 4.84545 11.1063 5.20303 10.8426 5.46667C10.579 5.73031 10.2214 5.87842 9.84858 5.87842C9.47574 5.87842 9.11817 5.73031 8.85453 5.46667C8.59088 5.20303 8.44277 4.84545 8.44277 4.47261C8.44277 4.09976 8.59088 3.74219 8.85453 3.47855C9.11817 3.21491 9.47574 3.0668 9.84858 3.0668Z" fill="#FBC976"/>
<path d="M9.84805 13.3765C10.3452 13.3765 10.8219 13.5739 11.1735 13.9255C11.525 14.277 11.7225 14.7538 11.7225 15.2509V16.6567C11.7225 17.1538 11.525 17.6306 11.1735 17.9821C10.8219 18.3336 10.3452 18.5311 9.84805 18.5311C9.35092 18.5311 8.87416 18.3336 8.52264 17.9821C8.17112 17.6306 7.97363 17.1538 7.97363 16.6567V15.2509C7.97363 14.7538 8.17112 14.277 8.52264 13.9255C8.87416 13.5739 9.35092 13.3765 9.84805 13.3765Z" fill="#FBC976"/>
<path fill-rule="evenodd" clip-rule="evenodd" d="M14.5347 10.5647C14.5347 9.32188 14.041 8.12997 13.1622 7.25117C12.2834 6.37237 11.0914 5.87866 9.84863 5.87866C8.60582 5.87866 7.41391 6.37237 6.53511 7.25117C5.6563 8.12997 5.1626 9.32188 5.1626 10.5647V12.9077C5.1626 13.5291 5.40945 14.1251 5.84885 14.5645C6.28825 15.0039 6.88421 15.2507 7.50562 15.2507H12.1917C12.8131 15.2507 13.409 15.0039 13.8484 14.5645C14.2878 14.1251 14.5347 13.5291 14.5347 12.9077V10.5647ZM7.03701 10.5647C7.03701 9.81901 7.33324 9.10386 7.86052 8.57658C8.3878 8.0493 9.10294 7.75308 9.84863 7.75308C10.5943 7.75308 11.3095 8.0493 11.8367 8.57658C12.364 9.10386 12.6603 9.81901 12.6603 10.5647V12.9077C12.6603 13.032 12.6109 13.1512 12.523 13.2391C12.4351 13.3269 12.3159 13.3763 12.1917 13.3763H7.50562C7.38133 13.3763 7.26214 13.3269 7.17426 13.2391C7.08638 13.1512 7.03701 13.032 7.03701 12.9077V10.5647Z" fill="#FBC976"/>
<path d="M15.0032 4.4728C14.7547 4.4728 14.5163 4.37406 14.3405 4.1983C14.1648 4.02254 14.066 3.78416 14.066 3.5356C14.066 3.28703 14.1648 3.04865 14.3405 2.87289C14.5163 2.69713 14.7547 2.59839 15.0032 2.59839H16.8776C17.1262 2.59839 17.3646 2.69713 17.5403 2.87289C17.7161 3.04865 17.8148 3.28703 17.8148 3.5356C17.8148 3.78416 17.7161 4.02254 17.5403 4.1983C17.3646 4.37406 17.1262 4.4728 16.8776 4.4728H15.0032ZM2.81953 4.4728C2.57097 4.4728 2.33259 4.37406 2.15683 4.1983C1.98107 4.02254 1.88232 3.78416 1.88232 3.5356C1.88232 3.28703 1.98107 3.04865 2.15683 2.87289C2.33259 2.69713 2.57097 2.59839 2.81953 2.59839H4.69395C4.94251 2.59839 5.18089 2.69713 5.35665 2.87289C5.53241 3.04865 5.63115 3.28703 5.63115 3.5356C5.63115 3.78416 5.53241 4.02254 5.35665 4.1983C5.18089 4.37406 4.94251 4.4728 4.69395 4.4728H2.81953Z" fill="#FBC976"/>
<path d="M3.67188 4.04747L4.11799 2.68384L8.35791 3.49265L7.91086 4.85722L3.67188 4.04747ZM11.3382 3.49265L11.7853 4.85722L16.0243 4.04747L15.5782 2.68384L11.3382 3.49265Z" fill="#FBC976"/>
</svg>
