<svg width="31" height="31" viewBox="0 0 31 31" fill="none" xmlns="http://www.w3.org/2000/svg">
<path d="M25.8802 4.38953H1.80371V22.9099H25.8802V4.38953ZM24.0282 21.0579H3.65575V6.24157H24.0282V21.0579Z" fill="url(#paint0_linear_1_1492)"/>
<path d="M27.7321 9.01965V24.762H6.43359V26.614H29.5841V9.01965H27.7321Z" fill="url(#paint1_linear_1_1492)"/>
<path d="M13.842 18.1907C16.1397 18.1907 18.0091 16.1571 18.0091 13.6575C18.0091 11.1579 16.1397 9.12429 13.842 9.12429C11.5443 9.12429 9.6749 11.1578 9.6749 13.6575C9.6749 16.1572 11.5443 18.1907 13.842 18.1907ZM13.842 10.9763C15.1185 10.9763 16.157 12.1791 16.157 13.6575C16.157 15.1359 15.1185 16.3387 13.842 16.3387C12.5655 16.3387 11.5269 15.1359 11.5269 13.6575C11.5269 12.1791 12.5655 10.9763 13.842 10.9763ZM5.50781 8.55664H7.35985V18.7429H5.50781V8.55664ZM20.3241 8.55664H22.1762V18.7429H20.3241V8.55664Z" fill="url(#paint2_linear_1_1492)"/>
<defs>
<linearGradient id="paint0_linear_1_1492" x1="1.80371" y1="13.6497" x2="25.8802" y2="13.6497" gradientUnits="userSpaceOnUse">
<stop stop-color="#F59E0B"/>
<stop offset="1" stop-color="#E61D2A"/>
</linearGradient>
<linearGradient id="paint1_linear_1_1492" x1="6.43359" y1="17.8168" x2="29.5841" y2="17.8168" gradientUnits="userSpaceOnUse">
<stop stop-color="#F59E0B"/>
<stop offset="1" stop-color="#E61D2A"/>
</linearGradient>
<linearGradient id="paint2_linear_1_1492" x1="5.50781" y1="13.6498" x2="22.1762" y2="13.6498" gradientUnits="userSpaceOnUse">
<stop stop-color="#F59E0B"/>
<stop offset="1" stop-color="#E61D2A"/>
</linearGradient>
</defs>
</svg>
