<svg width="24" height="25" viewBox="0 0 24 25" fill="none" xmlns="http://www.w3.org/2000/svg">
<g id="solar:phone-bold-duotone">
<path id="Vector" fill-rule="evenodd" clip-rule="evenodd" d="M15.9318 13.8448L16.3831 13.3965C17.0065 12.777 17.9773 12.6494 18.7749 13.0828L20.665 14.111C21.8792 14.771 22.1474 16.389 21.1984 17.3321L19.7932 18.7294C19.435 19.0856 18.9916 19.3449 18.481 19.3924C17.3014 19.5022 14.874 19.4429 12.0101 17.7665L15.9318 13.8448ZM10.0834 8.02999L10.3674 7.74697C11.067 7.05228 11.1333 5.93603 10.5228 5.12062L9.2759 3.45515C8.51986 2.44577 7.06022 2.31218 6.19434 3.17312L4.64069 4.71687C4.2122 5.14437 3.92522 5.69655 3.95986 6.31009C4.02418 7.43822 4.40814 9.49655 6.08647 12.0259L10.0834 8.02999Z" fill="black"/>
<path id="Vector_2" opacity="0.6" d="M11.9368 12.0022C9.02153 9.10374 10.0764 8.03598 10.0834 8.02905L6.08643 12.027C6.74648 13.0205 7.60544 14.0863 8.72268 15.1976C9.8508 16.3198 10.9591 17.152 12.0101 17.7666L15.9318 13.8458C15.9318 13.8458 14.8611 14.9106 11.9368 12.0032" fill="black"/>
</g>
</svg>
