<svg width="16" height="16" viewBox="0 0 16 16" fill="none" xmlns="http://www.w3.org/2000/svg">
<g clip-path="url(#clip0_1_2954)">
<path d="M9.00024 4.74989C9.00024 4.55098 9.07925 4.36021 9.21991 4.21956C9.36056 4.07891 9.55132 3.99989 9.75024 3.99989H13.7502C13.8985 4.00002 14.0434 4.04408 14.1666 4.1265C14.2898 4.20892 14.3858 4.326 14.4425 4.46297C14.4992 4.59993 14.5141 4.75063 14.4852 4.89603C14.4563 5.04142 14.385 5.175 14.2802 5.27989L12.3902 7.17189C12.7022 7.24789 12.9942 7.35189 13.2572 7.49089C13.9992 7.88189 14.5012 8.55389 14.5012 9.49589C14.5012 10.1489 14.2702 10.7039 13.8722 11.1229C13.4862 11.5309 12.9782 11.7759 12.4642 11.8999C11.4542 12.1429 10.2392 11.9629 9.34024 11.3729C9.1865 11.2586 9.08223 11.09 9.04874 10.9014C9.01526 10.7128 9.05509 10.5186 9.16009 10.3584C9.26509 10.1982 9.42733 10.0842 9.61361 10.0397C9.7999 9.99515 9.99615 10.0235 10.1622 10.1189C10.6962 10.4689 11.4822 10.5929 12.1132 10.4409C12.4192 10.3679 12.6432 10.2399 12.7832 10.0919C12.9122 9.95589 13.0012 9.77189 13.0012 9.49589C13.0012 9.18789 12.8782 8.98689 12.5572 8.81789C12.1842 8.62089 11.5772 8.49989 10.7512 8.49989C10.603 8.49976 10.4581 8.4557 10.3349 8.37328C10.2117 8.29086 10.1157 8.17378 10.0589 8.03681C10.0022 7.89985 9.98739 7.74915 10.0163 7.60375C10.0452 7.45835 10.1165 7.32478 10.2212 7.21989L11.9412 5.49989H9.75024C9.55132 5.49989 9.36056 5.42087 9.21991 5.28022C9.07925 5.13957 9.00024 4.9488 9.00024 4.74989ZM5.41324 10.5129C5.06324 10.4629 4.64323 10.6259 4.43024 11.0849C4.39007 11.1763 4.33207 11.2587 4.25964 11.3274C4.18721 11.396 4.1018 11.4495 4.00842 11.4848C3.91504 11.52 3.81556 11.5362 3.71583 11.5325C3.61609 11.5288 3.51809 11.5053 3.42758 11.4632C3.33707 11.4211 3.25587 11.3614 3.18873 11.2876C3.12159 11.2137 3.06986 11.1272 3.03658 11.0331C3.0033 10.9391 2.98913 10.8393 2.99491 10.7396C3.00069 10.64 3.0263 10.5425 3.07024 10.4529C3.57824 9.35889 4.65924 8.88789 5.62824 9.02789C6.62824 9.17289 7.50024 9.97289 7.50024 11.2499C7.50024 12.6829 6.41224 13.4419 5.71024 13.9309C5.40224 14.1469 5.13924 14.3279 4.93824 14.5039H7.00024C7.19915 14.5039 7.38991 14.5829 7.53057 14.7236C7.67122 14.8642 7.75024 15.055 7.75024 15.2539C7.75024 15.4528 7.67122 15.6436 7.53057 15.7842C7.38991 15.9249 7.19915 16.0039 7.00024 16.0039H3.75024C3.55132 16.0039 3.36056 15.9249 3.21991 15.7842C3.07925 15.6436 3.00024 15.4528 3.00024 15.2539C3.00024 14.5639 3.30024 14.0429 3.67024 13.6439C4.01824 13.2719 4.47024 12.9679 4.82024 12.7239C5.62024 12.1639 6.00024 11.8199 6.00024 11.2499C6.00024 10.7769 5.73324 10.5599 5.41324 10.5129ZM5.60424 0.088889C5.72386 0.152937 5.82388 0.248241 5.89361 0.364646C5.96335 0.48105 6.0002 0.614194 6.00024 0.749889V5.51989H6.71124C6.91015 5.51989 7.10091 5.59891 7.24157 5.73956C7.38222 5.88021 7.46124 6.07098 7.46124 6.26989C7.46124 6.4688 7.38222 6.65957 7.24157 6.80022C7.10091 6.94087 6.91015 7.01989 6.71124 7.01989H3.75924C3.56032 7.01989 3.36956 6.94087 3.22891 6.80022C3.08825 6.65957 3.00924 6.4688 3.00924 6.26989C3.00924 6.07098 3.08825 5.88021 3.22891 5.73956C3.36956 5.59891 3.56032 5.51989 3.75924 5.51989H4.50024V2.14989L4.16624 2.37289C4.00072 2.48062 3.7994 2.51872 3.60597 2.47893C3.41254 2.43914 3.2426 2.32466 3.13306 2.16034C3.02351 1.99602 2.9832 1.79513 3.02086 1.60127C3.05853 1.40741 3.17113 1.23623 3.33424 1.12489L4.83424 0.124889C4.94722 0.0496072 5.07851 0.00640416 5.21412 -0.000112028C5.34973 -0.00662822 5.48456 0.0237868 5.60424 0.087889V0.088889Z" fill="black"/>
</g>
<defs>
<clipPath id="clip0_1_2954">
<rect width="16" height="16" fill="white"/>
</clipPath>
</defs>
</svg>
