<svg width="13" height="14" viewBox="0 0 13 14" fill="none" xmlns="http://www.w3.org/2000/svg">
<path d="M1.08447 7C1.08447 8.29293 1.59809 9.53291 2.51233 10.4471C3.42657 11.3614 4.66654 11.875 5.95947 11.875C7.25406 11.875 8.49447 11.3658 9.42614 10.4667L8.61364 9.65417C8.27262 10.0153 7.8611 10.3026 7.40456 10.4983C6.94802 10.6939 6.45617 10.7938 5.95947 10.7917C2.57947 10.7917 0.889473 6.7075 3.27822 4.31875C5.66697 1.93 9.75114 3.62542 9.75114 7H8.12614L10.2928 9.16667H10.347L12.4595 7H10.8345C10.8345 5.70707 10.3209 4.46709 9.40662 3.55285C8.49238 2.63861 7.2524 2.125 5.95947 2.125C4.66654 2.125 3.42657 2.63861 2.51233 3.55285C1.59809 4.46709 1.08447 5.70707 1.08447 7Z" fill="white"/>
</svg>
