<svg width="24" height="24" viewBox="0 0 24 24" fill="none" xmlns="http://www.w3.org/2000/svg">
<path opacity="0.5" d="M18 13C19.657 13 21 14.28 21 15.857C21 18.714 18 21 18 21C18 21 15 19 15 15.857C15 14.28 16.343 13 18 13ZM18 17C18.2652 17 18.5196 16.8946 18.7071 16.7071C18.8946 16.5196 19 16.2652 19 16C19 15.7348 18.8946 15.4804 18.7071 15.2929C18.5196 15.1054 18.2652 15 18 15C17.7348 15 17.4804 15.1054 17.2929 15.2929C17.1054 15.4804 17 15.7348 17 16C17 16.2652 17.1054 16.5196 17.2929 16.7071C17.4804 16.8946 17.7348 17 18 17Z" fill="black"/>
<path d="M10.0001 3.75C8.69708 3.75 7.67308 4.776 7.67308 6C7.67308 7.224 8.69608 8.25 10.0001 8.25C11.3041 8.25 12.3281 7.224 12.3281 6C12.3281 4.776 11.3041 3.75 10.0001 3.75ZM6.17308 6C6.17308 3.91 7.90508 2.25 10.0021 2.25C12.0981 2.25 13.8301 3.91 13.8301 6C13.8301 8.09 12.0981 9.75 10.0021 9.75C7.90608 9.75 6.17008 8.09 6.17008 6M7.47008 11.966C7.28708 11.849 7.15008 11.842 7.08608 11.859C6.94208 11.899 6.79908 11.9417 6.65708 11.987L5.67308 12.302C5.33598 12.4058 5.0277 12.5867 4.77271 12.8304C4.51772 13.0742 4.32302 13.3739 4.20408 13.706C4.17745 13.7946 4.16035 13.8858 4.15308 13.978L3.76208 17.677L3.76008 17.69C3.68508 18.217 3.96608 18.62 4.39308 18.72C5.47008 18.97 7.28408 19.25 9.99908 19.25C10.198 19.25 10.3888 19.329 10.5294 19.4697C10.6701 19.6103 10.7491 19.8011 10.7491 20C10.7491 20.1989 10.6701 20.3897 10.5294 20.5303C10.3888 20.671 10.198 20.75 9.99908 20.75C7.18108 20.75 5.25208 20.458 4.05408 20.18C2.76508 19.881 2.11208 18.67 2.27308 17.493L2.66108 13.82C2.67908 13.648 2.71108 13.435 2.78708 13.216C2.98211 12.6639 3.30307 12.1648 3.72451 11.7583C4.14595 11.3518 4.6563 11.049 5.21508 10.874L6.20008 10.558C6.36208 10.5067 6.52475 10.4583 6.68808 10.413C7.29908 10.245 7.88008 10.446 8.28408 10.707C8.65408 10.947 9.25808 11.236 9.99908 11.236C10.7391 11.236 11.3431 10.946 11.7131 10.706C12.1161 10.446 12.6981 10.245 13.3091 10.413C13.4724 10.4583 13.6351 10.5067 13.7971 10.558L14.7821 10.874C14.8778 10.9024 14.9669 10.9497 15.0441 11.013C15.1213 11.0763 15.1851 11.1544 15.2317 11.2427C15.2784 11.331 15.3069 11.4278 15.3156 11.5272C15.3244 11.6267 15.3132 11.7269 15.2827 11.822C15.2522 11.9171 15.203 12.0051 15.138 12.081C15.0731 12.1568 14.9936 12.2189 14.9043 12.2636C14.815 12.3083 14.7177 12.3347 14.6181 12.3413C14.5184 12.3479 14.4185 12.3345 14.3241 12.302L13.3401 11.987C13.1976 11.9414 13.0543 11.8987 12.9101 11.859C12.8471 11.842 12.7101 11.849 12.5281 11.966C12.0151 12.298 11.1281 12.736 9.99808 12.736C8.86808 12.736 7.98308 12.298 7.47008 11.966Z" fill="black"/>
</svg>
