<svg width="24" height="24" viewBox="0 0 24 24" fill="none" xmlns="http://www.w3.org/2000/svg">
<path d="M12 20.9621C9.99067 20.3655 8.32167 19.1485 6.993 17.3111C5.66433 15.4738 5 13.4035 5 11.1001V5.69215L12 3.07715L19 5.69215V11.1001C19 13.4028 18.3357 15.4728 17.007 17.3101C15.6783 19.1475 14.0093 20.3641 12 20.9621ZM12 19.9011C13.6167 19.4011 14.9667 18.4138 16.05 16.9391C17.1333 15.4645 17.7667 13.8181 17.95 12.0001H12V4.14415L6 6.37515V11.5311C6 11.6605 6.01667 11.8168 6.05 12.0001H12V19.9011Z" fill="url(#paint0_linear_1_2900)"/>
<defs>
<linearGradient id="paint0_linear_1_2900" x1="5" y1="12.0201" x2="19" y2="12.0201" gradientUnits="userSpaceOnUse">
<stop stop-color="#F59E0B"/>
<stop offset="1" stop-color="#E61D2A"/>
</linearGradient>
</defs>
</svg>
