<svg width="15" height="15" viewBox="0 0 15 15" fill="none" xmlns="http://www.w3.org/2000/svg">
<path d="M11.25 3.75H5.17969C5.05537 3.75 4.93614 3.70061 4.84823 3.61271C4.76032 3.5248 4.71094 3.40557 4.71094 3.28125C4.71094 3.15693 4.76032 3.0377 4.84823 2.94979C4.93614 2.86189 5.05537 2.8125 5.17969 2.8125H11.7188C11.8431 2.8125 11.9623 2.86189 12.0502 2.94979C12.1381 3.0377 12.1875 3.15693 12.1875 3.28125V9.84375C12.1875 9.96807 12.1381 10.0873 12.0502 10.1752C11.9623 10.2631 11.8431 10.3125 11.7188 10.3125C11.5944 10.3125 11.4752 10.2631 11.3873 10.1752C11.2994 10.0873 11.25 9.96807 11.25 9.84375V3.75Z" fill="black"/>
<path d="M11.387 2.94936C11.475 2.86134 11.5944 2.81189 11.7189 2.81189C11.8433 2.81189 11.9627 2.86134 12.0507 2.94936C12.1387 3.03738 12.1882 3.15675 12.1882 3.28123C12.1882 3.40571 12.1387 3.52509 12.0507 3.61311L4.08198 11.5819C4.0384 11.6254 3.98666 11.66 3.92971 11.6836C3.87277 11.7072 3.81174 11.7193 3.7501 11.7193C3.68847 11.7193 3.62744 11.7072 3.57049 11.6836C3.51355 11.66 3.46181 11.6254 3.41823 11.5819C3.37465 11.5383 3.34007 11.4865 3.31649 11.4296C3.2929 11.3726 3.28076 11.3116 3.28076 11.25C3.28076 11.1883 3.2929 11.1273 3.31649 11.0704C3.34007 11.0134 3.37465 10.9617 3.41823 10.9181L11.387 2.94936Z" fill="black"/>
</svg>
