<svg width="24" height="24" viewBox="0 0 24 24" fill="none" xmlns="http://www.w3.org/2000/svg">
<path opacity="0.5" d="M14.052 2C15.732 2 17.062 2 18.104 2.142C19.176 2.289 20.044 2.598 20.728 3.294C21.412 3.99 21.716 4.874 21.86 5.964C22 7.024 22 8.378 22 10.087V13.913C22 15.623 22 16.977 21.86 18.036C21.716 19.126 21.412 20.01 20.728 20.706C20.044 21.402 19.176 21.711 18.104 21.858C17.063 22 15.732 22 14.052 22H13.948C12.268 22 10.938 22 9.896 21.858C8.824 21.711 7.956 21.402 7.272 20.706C6.588 20.01 6.284 19.126 6.14 18.036C6 16.976 6 15.622 6 13.913V10.087C6 8.377 6 7.023 6.14 5.964C6.284 4.874 6.588 3.99 7.272 3.294C7.956 2.598 8.824 2.29 9.896 2.142C10.937 2 12.268 2 13.948 2H14.052Z" fill="url(#paint0_linear_595_300)"/>
<path d="M12 18.25C11.8011 18.25 11.6103 18.329 11.4697 18.4697C11.329 18.6103 11.25 18.8011 11.25 19C11.25 19.1989 11.329 19.3897 11.4697 19.5303C11.6103 19.671 11.8011 19.75 12 19.75H17C17.1989 19.75 17.3897 19.671 17.5303 19.5303C17.671 19.3897 17.75 19.1989 17.75 19C17.75 18.8011 17.671 18.6103 17.5303 18.4697C17.3897 18.329 17.1989 18.25 17 18.25H12ZM2 14.5C2 13.095 2 12.393 2.337 11.889C2.48296 11.6705 2.67053 11.483 2.889 11.337C3.393 11 4.096 11 5.5 11C6.904 11 7.607 11 8.111 11.337C8.32947 11.483 8.51704 11.6705 8.663 11.889C9 12.393 9 13.096 9 14.5V18.5C9 19.904 9 20.607 8.663 21.111C8.51704 21.3295 8.32947 21.517 8.111 21.663C7.607 22 6.904 22 5.5 22C4.096 22 3.393 22 2.889 21.663C2.67053 21.517 2.48296 21.3295 2.337 21.111C2 20.607 2 19.904 2 18.5V14.5Z" fill="url(#paint1_linear_595_300)"/>
<defs>
<linearGradient id="paint0_linear_595_300" x1="6" y1="12" x2="22" y2="12" gradientUnits="userSpaceOnUse">
<stop stop-color="#F59E0B"/>
<stop offset="1" stop-color="#E61D2A"/>
</linearGradient>
<linearGradient id="paint1_linear_595_300" x1="2" y1="16.5" x2="17.75" y2="16.5" gradientUnits="userSpaceOnUse">
<stop stop-color="#F59E0B"/>
<stop offset="1" stop-color="#E61D2A"/>
</linearGradient>
</defs>
</svg>
