<svg width="24" height="24" viewBox="0 0 24 24" fill="none" xmlns="http://www.w3.org/2000/svg">
<path d="M18.1408 7.577C18.5182 7.70274 18.8302 7.97323 19.0082 8.32898C19.1861 8.68473 19.2155 9.0966 19.0898 9.474L18.5628 11.056C18.1313 12.3502 17.3035 13.4759 16.1967 14.2734C15.0898 15.071 13.7601 15.5002 12.3958 15.5H9.85384C9.57529 15.5002 9.3023 15.5779 9.06546 15.7245C8.82861 15.8711 8.63725 16.0808 8.51284 16.33L6.34184 20.67C6.25479 20.8478 6.13341 21.0066 5.98469 21.1373C5.83598 21.2679 5.66287 21.3679 5.47535 21.4313C5.28782 21.4948 5.0896 21.5205 4.8921 21.5069C4.6946 21.4934 4.50173 21.4409 4.32461 21.3525C4.14749 21.264 3.98963 21.1414 3.86012 20.9917C3.73062 20.842 3.63203 20.6681 3.57005 20.4801C3.50807 20.2921 3.48391 20.0937 3.49898 19.8963C3.51405 19.6989 3.56804 19.5064 3.65784 19.33L5.82884 14.988C6.20252 14.2404 6.777 13.6117 7.48792 13.1722C8.19883 12.7328 9.01807 12.5 9.85384 12.5H12.3958C13.1303 12.4999 13.8462 12.2688 14.442 11.8393C15.0379 11.4098 15.4835 10.8038 15.7158 10.107L16.2438 8.526C16.3696 8.14862 16.6401 7.83663 16.9958 7.65867C17.3516 7.4807 17.7634 7.45132 18.1408 7.577ZM8.00084 4.257C8.39853 4.25735 8.7798 4.41562 9.06084 4.697L11.1818 6.818C11.3251 6.95637 11.4394 7.12189 11.518 7.30489C11.5966 7.4879 11.638 7.68473 11.6397 7.8839C11.6414 8.08307 11.6035 8.28059 11.5281 8.46493C11.4526 8.64928 11.3413 8.81675 11.2004 8.95759C11.0596 9.09843 10.8921 9.20981 10.7078 9.28523C10.5234 9.36065 10.3259 9.39861 10.1267 9.39688C9.92757 9.39514 9.73074 9.35377 9.54773 9.27515C9.36473 9.19654 9.19921 9.08227 9.06084 8.939L7.99984 7.88L6.93784 8.94C6.80003 9.08562 6.63443 9.20215 6.45082 9.28267C6.26721 9.3632 6.06932 9.40611 5.86884 9.40885C5.66837 9.41159 5.46938 9.37411 5.28363 9.29863C5.09789 9.22315 4.92916 9.1112 4.78743 8.9694C4.64569 8.82759 4.53382 8.65881 4.45843 8.47303C4.38304 8.28726 4.34565 8.08825 4.34849 7.88778C4.35132 7.6873 4.39432 7.48943 4.47493 7.30586C4.55555 7.12229 4.67215 6.95674 4.81784 6.819L6.93784 4.698C7.07715 4.55825 7.24266 4.44737 7.4249 4.37169C7.60714 4.29602 7.80251 4.25704 7.99984 4.257H8.00084ZM18.4998 3C18.8977 3 19.2792 3.15804 19.5605 3.43934C19.8418 3.72064 19.9998 4.10218 19.9998 4.5C19.9998 4.89782 19.8418 5.27936 19.5605 5.56066C19.2792 5.84196 18.8977 6 18.4998 6C18.102 6 17.7205 5.84196 17.4392 5.56066C17.1579 5.27936 16.9998 4.89782 16.9998 4.5C16.9998 4.10218 17.1579 3.72064 17.4392 3.43934C17.7205 3.15804 18.102 3 18.4998 3Z" fill="black"/>
</svg>
