<svg width="23" height="23" viewBox="0 0 23 23" fill="none" xmlns="http://www.w3.org/2000/svg">
<path d="M4.01148 15.5055V10.266C4.01135 10.2427 4.01721 10.2197 4.02848 10.1993C4.03976 10.1789 4.05607 10.1617 4.07588 10.1494C4.09568 10.1371 4.11831 10.13 4.14161 10.1289C4.16491 10.1278 4.1881 10.1327 4.20897 10.1432L10.071 13.0746C10.4502 13.2643 10.8684 13.363 11.2924 13.363C11.7164 13.363 12.1345 13.2643 12.5137 13.0746L18.3749 10.1441C18.3957 10.1335 18.4189 10.1284 18.4423 10.1293C18.4656 10.1303 18.4883 10.1372 18.5082 10.1495C18.5282 10.1617 18.5446 10.1788 18.556 10.1992C18.5674 10.2197 18.5733 10.2427 18.5733 10.266V15.5055C18.5733 15.9883 18.3815 16.4513 18.0401 16.7926C17.6988 17.134 17.2358 17.3258 16.753 17.3258H5.8317C5.34895 17.3258 4.88597 17.134 4.54461 16.7926C4.20325 16.4513 4.01148 15.9883 4.01148 15.5055Z" fill="white"/>
<path d="M4.01147 8.22477V9.05024C4.01151 9.07557 4.01859 9.1004 4.03193 9.12194C4.04528 9.14348 4.06435 9.16088 4.08701 9.17219L10.071 12.1646C10.4502 12.3543 10.8684 12.4531 11.2924 12.4531C11.7164 12.4531 12.1345 12.3543 12.5137 12.1646L18.4977 9.17219C18.5204 9.16088 18.5395 9.14348 18.5528 9.12194C18.5662 9.1004 18.5732 9.07557 18.5733 9.05024V8.22477C18.5733 7.74201 18.3815 7.27903 18.0401 6.93767C17.6988 6.59631 17.2358 6.40454 16.753 6.40454H5.8317C5.34895 6.40454 4.88596 6.59631 4.54461 6.93767C4.20325 7.27903 4.01147 7.74201 4.01147 8.22477Z" fill="white" fill-opacity="0.25"/>
</svg>
