<svg width="30" height="14" viewBox="0 0 30 14" fill="none" xmlns="http://www.w3.org/2000/svg">
<g clip-path="url(#clip0_1_3026)">
<path d="M11.3903 0.171094L7.4625 9.54117H4.90008L2.96719 2.06297C2.85 1.60348 2.74816 1.43437 2.39156 1.24008C1.80867 0.923437 0.846094 0.627305 0 0.443086L0.0570703 0.171094H4.18254C4.70754 0.171094 5.18027 0.520664 5.30051 1.12594L6.3218 6.54855L8.8432 0.171094H11.3903ZM14.8543 0.171094L12.8501 9.54117H10.4257L12.4302 0.171094H14.8543ZM21.4304 6.48187C21.4405 4.00934 18.0116 3.87211 18.034 2.76738C18.0422 2.43152 18.3621 2.07398 19.0624 1.98258C19.4093 1.9377 20.3677 1.90195 21.4532 2.40211L21.8779 0.413906C21.2946 0.202969 20.544 0 19.6104 0C17.2139 0 15.5282 1.27289 15.5147 3.09703C15.499 4.44633 16.7188 5.19832 17.6361 5.64773C18.581 6.10664 18.8979 6.4016 18.8936 6.81176C18.8868 7.44047 18.1389 7.71879 17.4436 7.7291C16.2244 7.74844 15.5176 7.39957 14.9538 7.13695L14.5138 9.19102C15.081 9.45094 16.1263 9.67676 17.209 9.68824C19.7566 9.68824 21.4229 8.42988 21.4304 6.48187ZM27.7586 9.54129H30L28.0418 0.171094H25.9738C25.5074 0.171094 25.1154 0.441797 24.9415 0.85793L21.304 9.54117H23.8496L24.3546 8.14148H27.4648L27.7586 9.54129ZM25.0527 6.22148L26.3291 2.7027L27.0623 6.22148H25.0527ZM17.957 12.1205H16.9719V13.0372H18.0737V13.3129H16.64V10.7695H18.0172V11.0452H16.9719V11.8487H17.9569L17.957 12.1205ZM18.5827 10.6338H18.9145V13.3127H18.5827V10.6338ZM19.752 12.46C19.7595 12.9091 20.0426 13.0939 20.3782 13.0939C20.6161 13.0939 20.7632 13.0525 20.8841 12.9997L20.9443 13.2375C20.8274 13.2902 20.6237 13.3543 20.333 13.3543C19.7709 13.3543 19.4352 12.9809 19.4352 12.4298C19.4352 11.8791 19.7595 11.4487 20.2916 11.4487C20.8916 11.4487 21.0463 11.9696 21.0463 12.3054C21.0463 12.3732 21.0424 12.4222 21.0348 12.4601L19.752 12.46ZM20.7254 12.2223C20.7293 12.0149 20.6387 11.6865 20.2651 11.6865C19.9255 11.6865 19.7821 11.9921 19.7556 12.2223H20.7254ZM22.8529 13.2486C22.7661 13.2902 22.5736 13.3545 22.3284 13.3545C21.7775 13.3545 21.4191 12.9809 21.4191 12.4223C21.4191 11.8601 21.8038 11.4489 22.4 11.4489C22.5962 11.4489 22.7698 11.4977 22.8604 11.547L22.7851 11.7997C22.7055 11.7582 22.5811 11.7128 22.4 11.7128C21.9811 11.7128 21.7549 12.026 21.7549 12.4036C21.7549 12.8261 22.0266 13.0864 22.3888 13.0864C22.5775 13.0864 22.7019 13.0412 22.7962 12.9997L22.8529 13.2486ZM23.7843 11.0488V11.4865H24.2596V11.7391H23.7843V12.7241C23.7843 12.9507 23.8485 13.0788 24.0333 13.0788C24.1238 13.0788 24.1767 13.0714 24.2258 13.0561L24.2409 13.3092C24.1767 13.3317 24.0749 13.3543 23.9466 13.3543C23.7918 13.3543 23.6672 13.3015 23.5881 13.2149C23.4975 13.1128 23.4598 12.9507 23.4598 12.7356V11.7391H23.1766V11.4865H23.4598V11.1469L23.7843 11.0488ZM24.7233 12.0564C24.7233 11.8412 24.7193 11.6564 24.7082 11.4865H24.9988L25.014 11.8486H25.025C25.1082 11.6036 25.3118 11.4487 25.5343 11.4487C25.5684 11.4487 25.5949 11.4526 25.6252 11.4563V11.7696C25.5912 11.7619 25.5573 11.7619 25.5117 11.7619C25.278 11.7619 25.1118 11.9354 25.0666 12.1847C25.0588 12.2359 25.055 12.2876 25.0553 12.3394V13.313H24.7233V12.0564ZM27.666 12.3845C27.666 13.06 27.1942 13.3543 26.7566 13.3543C26.2659 13.3543 25.8812 12.992 25.8812 12.4148C25.8812 11.8072 26.2849 11.4489 26.7868 11.4489C27.3112 11.4489 27.666 11.8296 27.666 12.3845ZM26.2207 12.4036C26.2207 12.8036 26.4471 13.1055 26.7716 13.1055C27.0887 13.1055 27.3263 12.8072 27.3263 12.396C27.3263 12.0866 27.1716 11.6978 26.7791 11.6978C26.3906 11.6978 26.2207 12.0602 26.2207 12.4036ZM28.1748 11.9809C28.1748 11.7886 28.1708 11.6375 28.1596 11.4867H28.4539L28.4728 11.7886H28.4803C28.5709 11.6187 28.7822 11.449 29.0841 11.449C29.3367 11.449 29.7293 11.5999 29.7293 12.2261V13.313H29.3973V12.2602C29.3973 11.966 29.2879 11.7205 28.9747 11.7205C28.7596 11.7205 28.5896 11.8753 28.5295 12.0601C28.5143 12.1017 28.5068 12.1582 28.5068 12.2149V13.313H28.1748V11.9809Z" fill="#1A1F71"/>
</g>
<defs>
<clipPath id="clip0_1_3026">
<rect width="30" height="13.3594" fill="white"/>
</clipPath>
</defs>
</svg>
